<svg xmlns="http://www.w3.org/2000/svg" width="65" height="64" fill="none"><g clip-path="url(#a)"><path fill="#9A4993" d="M60.2 19c0-1.1-.2-2.1-.7-2.9a5.3 5.3 0 0 0-2-2l-22.6-13c-2-1.1-4-1-6 .1C26 3 11 11.5 6.7 14.2a5.2 5.2 0 0 0-2.8 4.7V45c0 1 .3 2 .7 2.8.5.8 1.1 1.5 2 2l22.5 13c2 1.1 4 1.2 6 0l22.5-13a5.2 5.2 0 0 0 2.7-4.8V19Z"/><path fill="#6A1577" d="M32 31.9 4.6 47.8c.4.8 1.1 1.5 2 2l22.4 13c2 1.1 4 1.2 6 0l22.5-13c1-.5 1.6-1.2 2-2l-27.3-16Z"/><path fill="#6A1577" d="M24 36.6a9.3 9.3 0 0 0 16.1 0l-8-4.7-8.2 4.7Z"/><path fill="#813084" d="M60.2 19c0-1.1-.2-2.1-.7-2.9L32 31.9l27.4 15.9c.5-.8.7-1.7.7-2.8V19Z"/><path fill="#fff" d="M40.1 36.5a9.3 9.3 0 1 1 0-9.2l8-4.7a18.7 18.7 0 1 0 .2 18.6L40 36.5Zm10.3-9h-1.8v9h1.8v-9Zm4.1 0h-1.8v9h1.8v-9Z"/><path fill="#fff" d="M56 29h-9v2h9v-2Zm0 4.1h-9V35h9v-1.9Z"/></g><defs><clipPath id="a"><path fill="#fff" d="M0 0h64v64H0z"/></clipPath></defs></svg>