<svg xmlns="http://www.w3.org/2000/svg" width="26" height="27" fill="none"><g clip-path="url(#a)"><path fill="#A179DC" d="M25 8c0-.4-.1-.8-.3-1.1-.2-.4-.5-.6-.9-.9L14.2.6c-1-.5-1.8-.5-2.6 0L2 6C1.2 6.5.8 7.2.8 8v11c0 .5.1 1 .3 1.2.2.4.5.7.9.9l9.6 5.4c.8.5 1.7.6 2.6 0l9.6-5.4c.4-.2.7-.5.9-.9.2-.3.3-.7.3-1.1V8Z"/><path fill="#280068" d="M13 13.5 1 20.2c.2.4.5.7.9.9l9.6 5.4c.8.5 1.7.6 2.6 0l9.6-5.4c.4-.2.7-.5.9-.9l-11.8-6.7Z"/><path fill="#390091" d="M25 8c0-.4-.1-.8-.3-1.1l-11.8 6.6 11.8 6.7c.2-.3.3-.7.3-1.1V8Z"/><path fill="#fff" d="M19.9 11v1.3h1.3V11h.6v1.3h1.3v.6h-1.3v1.3h1.3v.6h-1.3V16h-.6v-1.2h-1.3V16h-.6v-1.2H18v-.6h1.3v-1.3H18v-.6h1.3V11h.6Zm1.3 2h-1.3v1.2h1.3v-1.3Z"/><path fill="#fff" d="M13 4.7a9 9 0 0 1 7.7 4.5l-3.9 2.1a4.4 4.4 0 0 0-8.3 2.2A4.5 4.5 0 0 0 13 18c1.6 0 3-.8 3.9-2.2l3.8 2.3a9 9 0 0 1-7.6 4.4H13A9 9 0 0 1 5.2 18 8.7 8.7 0 0 1 4 13.6a9 9 0 0 1 9-8.9Z"/></g><defs><clipPath id="a"><path fill="#fff" d="M.8.2H25V27H.8z"/></clipPath></defs></svg>