<svg xmlns="http://www.w3.org/2000/svg" width="25" height="29" fill="none"><path fill="#83CD29" fill-rule="evenodd" d="M12.3.8c-.3 0-.7.1-1 .3L1.2 6.9C.5 7.3 0 8 0 8.8v11.6c0 .8.4 1.5 1 1.9l2.7 1.5c1.3.6 1.8.6 2.3.6 2 0 3-1.1 3-3.1V9.8c0-.2-.1-.3-.3-.3H7.6c-.2 0-.3.1-.3.3v11.5c0 .9-1 1.8-2.5 1l-2.7-1.6c-.1 0-.2-.1-.2-.3V8.8c0-.1 0-.3.2-.3l10-5.8h.4l10 5.8c.2 0 .3.2.3.3v11.6c0 .2-.1.3-.2.3l-10.1 5.8h-.3L9.6 25h-.3l-1.5.7c-.2 0-.4.1 0 .4l3.5 2a2 2 0 0 0 2 0l10.2-5.8c.7-.4 1-1.1 1-1.9V8.8c0-.8-.3-1.5-1-1.9L13.4 1.1c-.3-.2-.7-.3-1-.3ZM15 9.2c-2.8 0-4.6 1.2-4.6 3.2 0 2.2 1.7 2.8 4.5 3.1 3.3.3 3.6.8 3.6 1.5 0 1.1-1 1.6-3 1.6-2.7 0-3.3-.7-3.5-2 0-.1-.1-.3-.3-.3h-1.3c-.2 0-.3.2-.3.3 0 1.7 1 3.8 5.3 3.8 3.2 0 5-1.3 5-3.5S19 14 16 13.7c-3.1-.4-3.4-.6-3.4-1.3 0-.6.2-1.5 2.5-1.5 2.1 0 2.9.5 3.2 1.9 0 .1.1.2.3.2H20v-.3c-.1-2.4-1.7-3.5-5-3.5Z" clip-rule="evenodd"/></svg>