<svg xmlns="http://www.w3.org/2000/svg" width="24" height="32" fill="none"><path fill="#00ACFF" fill-rule="evenodd" d="M7.8 24.4s-1.2.7.9 1c2.5.3 3.8.2 6.5-.3 0 0 .7.5 1.7.8-6.1 2.7-14-.1-9-1.5ZM7.1 21s-1.4 1 .7 1.2c2.6.3 4.8.3 8.4-.4 0 0 .5.5 1.3.8C10 24.8 1.7 22.8 7 21Z" clip-rule="evenodd"/><path fill="#EB2E30" fill-rule="evenodd" d="M13.4 15.1c1.5 1.8-.4 3.4-.4 3.4s3.9-2 2.1-4.5c-1.6-2.3-3-3.5 4-7.5 0 0-10.8 2.7-5.7 8.6Z" clip-rule="evenodd"/><path fill="#00ACFF" fill-rule="evenodd" d="M21.6 27s.9.7-1 1.3c-3.6 1-14.8 1.4-18 0-1-.5 1-1.1 1.7-1.3h1.1c-1.3-1-8 1.6-3.5 2.4 12.6 2 23-1 19.7-2.4ZM8.4 17.4s-5.7 1.4-2 1.9c1.5.2 4.7.1 7.6-.1l4.7-.6-1.4.7c-5.9 1.6-17 .9-13.8-.7 2.7-1.3 5-1.2 5-1.2Zm10.3 5.8c5.9-3.1 3.1-6 1.2-5.7l-.6.2.5-.4c3.7-1.3 6.6 4-1.2 6v-.1Z" clip-rule="evenodd"/><path fill="#EB2E30" fill-rule="evenodd" d="M15.1.1s3.3 3.3-3 8.3c-5.2 4-1.3 6.3 0 9-3-2.7-5.3-5-3.8-7.3 2.2-3.2 8.1-4.8 6.8-10Z" clip-rule="evenodd"/><path fill="#00ACFF" fill-rule="evenodd" d="M9 31.5c5.7.3 14.4-.2 14.6-2.9 0 0-.4 1-4.7 1.8-4.9 1-10.8.8-14.4.2 0 0 .8.6 4.5.9Z" clip-rule="evenodd"/></svg>