<svg xmlns="http://www.w3.org/2000/svg" width="83" height="47" fill="none"><path fill="#83CD29" d="M40.9 28h-.7l-6.9 4c-.4.3-.7.8-.7 1.3v8c0 .5.3 1 .7 1.2l1.8 1c.9.5 1.2.5 1.6.5 1.3 0 2-.8 2-2.2V34c0-.1 0-.2-.2-.2h-.8c-.2 0-.3 0-.3.2v7.8c0 .6-.6 1.2-1.6.7l-1.9-1V33l6.9-4h.2l6.9 4V41.4l-6.9 4h-.2l-1.8-1H39l-1 .4c-.2 0-.4.1 0 .3l2.3 1.4a1.4 1.4 0 0 0 1.4 0l6.9-4c.4-.2.7-.7.7-1.2v-8c0-.5-.3-1-.7-1.2l-6.9-4-.7-.2Zm1.8 5.6c-2 0-3 .8-3 2.2 0 1.5 1 2 3 2.1 2.2.2 2.4.6 2.4 1 0 .8-.6 1.1-2 1.1-2 0-2.3-.5-2.4-1.4l-.2-.1h-1a.2.2 0 0 0-.1.2c0 1.1.6 2.5 3.6 2.5 2.2 0 3.4-.9 3.4-2.4 0-1.4-1-1.8-3-2.1-2.2-.3-2.4-.4-2.4-1 0-.4.2-1 1.7-1 1.4 0 2 .4 2.2 1.3 0 .1 0 .2.2.2h1V36c0-1.6-1.2-2.4-3.4-2.4Z"/><path fill="#fff" d="M55.3.1a.4.4 0 0 0-.4.2v11.4a.3.3 0 0 1-.4.3h-.1l-1.8-1a.9.9 0 0 0-1 0l-7.2 4.2c-.3.1-.4.4-.4.7v8.4a.9.9 0 0 0 .4.8l7.3 4.2a.9.9 0 0 0 .9 0l7.3-4.2a.9.9 0 0 0 .4-.8v-21c0-.3-.2-.6-.5-.7L55.5.2h-.2Zm-47 10.5-.3.1L.7 15a.9.9 0 0 0-.4.8V27c0 .1 0 .3.2.4h.4l4.4-2.5c.2-.2.4-.5.4-.8V19c0-.4.2-.7.4-.8L8 17c.1-.2.3-.2.4-.2l.5.1 1.8 1c.3.2.4.5.4.8v5.3c0 .3.2.6.5.8l4.3 2.5h.5l.2-.4V15.7a.9.9 0 0 0-.4-.8l-7.3-4.2a.8.8 0 0 0-.4 0h-.1Zm65.6.1-.4.1-7.3 4.3c-.3.1-.5.4-.5.7v8.4c0 .3.2.6.5.8l7.2 4.1c.3.2.6.2.9 0l4.4-2.4.2-.4-.2-.4-7.4-4.2a.5.5 0 0 1-.2-.4v-2.6l.2-.4 2.3-1.3h.5l2.2 1.3a.4.4 0 0 1 .2.4v2a.4.4 0 0 0 .3.4c.1.1.3.1.4 0l4.4-2.5c.2-.2.4-.4.4-.8v-2a.9.9 0 0 0-.4-.7l-7.3-4.3a.9.9 0 0 0-.4 0ZM52 17h.1l2.5 1.5.1.2v3.1l-2.6 1.4H52l-2.5-1.4-.1-.2v-3.1L52 17Z"/><path fill="#83CD29" d="m30.3 10.7-.5.1-7.2 4.2c-.3.2-.5.5-.5.8v8.4a.9.9 0 0 0 .5.7l7.2 4.2a.9.9 0 0 0 1 0L38 25a.9.9 0 0 0 .5-.7v-8.4c0-.3-.2-.6-.5-.8l-7.3-4.2a.9.9 0 0 0-.4-.1Zm43.6 7.5h-.1l-1.4.8a.2.2 0 0 0-.1.2V20.9l1.5.8a.2.2 0 0 0 .2 0l1.4-.8V19l-1.4-.8h-.1Z"/></svg>