<svg xmlns="http://www.w3.org/2000/svg" width="32" height="33" fill="none"><path fill="#fff" fill-rule="evenodd" d="M10 1.5a105 105 0 0 1 15.6.6c1 .4 1.9 1 2.6 1.7A7.2 7.2 0 0 1 30 6.4c.4 1 .6 2 .7 3.6v12a10.8 10.8 0 0 1-.7 3.6 7.2 7.2 0 0 1-1.7 2.6 7.2 7.2 0 0 1-2.6 1.7c-1 .4-2 .6-3.6.7a105 105 0 0 1-12 0 10.8 10.8 0 0 1-3.6-.7 7.2 7.2 0 0 1-2.6-1.7A7.2 7.2 0 0 1 2 25.6c-.4-.9-.6-2-.7-3.5a105 105 0 0 1 .7-15.7 7.2 7.2 0 0 1 1.7-2.6 7.2 7.2 0 0 1 2.6-1.7c1-.3 2-.6 3.5-.6ZM22 4H10a8.1 8.1 0 0 0-2.6.5c-.7.3-1.2.6-1.7 1.1a4.5 4.5 0 0 0-1.1 1.7A8.1 8.1 0 0 0 4 10a104.7 104.7 0 0 0 .5 14.6 4.8 4.8 0 0 0 2.8 2.8c.5.2 1.2.4 2.7.5H22a8.1 8.1 0 0 0 2.6-.5 4.5 4.5 0 0 0 1.7-1.1c.5-.5.9-1 1.1-1.7.2-.5.5-1.3.5-2.7l.1-6v-5.9a8.1 8.1 0 0 0-.6-2.7 4.6 4.6 0 0 0-1-1.7 4.5 4.5 0 0 0-1.7-1.1 8.1 8.1 0 0 0-2.8-.5ZM14 20.6a4.9 4.9 0 1 0 3.8-9 4.9 4.9 0 0 0-3.8 9Zm-3.4-9.9a7.5 7.5 0 1 1 10.6 10.7 7.5 7.5 0 0 1-10.6-10.7Zm14.5-1A1.8 1.8 0 1 0 22.8 7a1.8 1.8 0 0 0 2.4 2.6Z" clip-rule="evenodd"/></svg>