<svg xmlns="http://www.w3.org/2000/svg" width="32" height="33" fill="none"><path fill="#fff" fill-rule="evenodd" d="M9.95 1.46c1.57-.07 2.07-.09 6.05-.09s4.48.02 6.05.1c1.56.06 2.63.31 3.56.67.98.37 1.86.95 2.6 1.7a7.16 7.16 0 0 1 1.69 2.6c.36.93.6 2 .68 3.55.07 1.57.09 2.07.09 6.05s-.02 4.48-.1 6.05a10.75 10.75 0 0 1-.67 3.56 7.2 7.2 0 0 1-1.7 2.6 7.2 7.2 0 0 1-2.6 1.69c-.92.36-2 .6-3.55.68-1.57.07-2.07.09-6.05.09s-4.48-.02-6.05-.1a10.75 10.75 0 0 1-3.56-.67 7.2 7.2 0 0 1-2.6-1.7 7.19 7.19 0 0 1-1.69-2.6c-.36-.92-.6-2-.68-3.55-.07-1.57-.09-2.07-.09-6.05s.02-4.48.1-6.04c.06-1.57.31-2.63.67-3.57a7.2 7.2 0 0 1 1.7-2.6 7.19 7.19 0 0 1 2.6-1.69c.93-.36 2-.6 3.55-.68ZM21.93 4.1c-1.55-.07-2.01-.08-5.93-.08s-4.38.01-5.93.08a8.1 8.1 0 0 0-2.72.5c-.68.27-1.17.59-1.69 1.1a4.55 4.55 0 0 0-1.1 1.69 8.1 8.1 0 0 0-.5 2.72c-.07 1.55-.08 2.01-.08 5.93s.01 4.38.08 5.93c.07 1.43.3 2.2.5 2.72.24.64.62 1.21 1.1 1.69.48.48 1.05.86 1.69 1.1.52.2 1.3.43 2.72.5 1.55.07 2.01.08 5.93.08s4.38-.01 5.93-.08a8.1 8.1 0 0 0 2.72-.5 4.55 4.55 0 0 0 1.69-1.1c.48-.48.86-1.05 1.1-1.69.2-.52.43-1.3.5-2.72.07-1.55.08-2.01.08-5.93s-.01-4.38-.08-5.93a8.1 8.1 0 0 0-.5-2.72 4.56 4.56 0 0 0-1.1-1.69 4.55 4.55 0 0 0-1.69-1.1 8.1 8.1 0 0 0-2.72-.5Zm-7.8 16.46a4.9 4.9 0 1 0 3.76-9.03 4.9 4.9 0 0 0-3.76 9.03Zm-3.46-9.85a7.54 7.54 0 1 1 10.66 10.66 7.54 7.54 0 0 1-10.66-10.66Zm14.54-1.09a1.78 1.78 0 1 0-2.44-2.59 1.78 1.78 0 0 0 2.44 2.6Z" clip-rule="evenodd"/></svg>