<svg xmlns="http://www.w3.org/2000/svg" width="32" height="33" fill="none"><path fill="#fff" d="M27.3 2.57c-.37.02-.73.1-1.07.25-.32.12-1.86.76-4.2 1.73l-8.37 3.47-11.9 4.95.06-.03s-.4.14-.83.42c-.26.17-.49.38-.66.64-.21.3-.38.76-.32 1.24.1.8.64 1.29 1.02 1.56s.75.4.75.4l5.55 1.83c.24.79 1.68 5.45 2.03 6.53.2.64.4 1.04.65 1.35.12.15.26.29.43.4.09.04.18.08.28.1h-.06l.04.02.14.02c.87.27 1.58-.27 1.58-.27l.04-.03 3.27-2.94 5.48 4.15.12.05c1.14.5 2.3.22 2.91-.27.62-.48.86-1.11.86-1.11l.04-.1 4.23-21.39c.12-.53.15-1.02.02-1.5a2.02 2.02 0 0 0-2.1-1.47Zm-.12 2.29c0 .07 0 .06-.03.2v.01l-4.19 21.17c-.02.03-.05.1-.13.16-.1.07-.16.11-.53-.03l-6.7-5.07-4.05 3.64.85-5.36L23.35 9.52c.45-.41.3-.5.3-.5.03-.5-.68-.15-.68-.15L9.17 17.3l-.01-.02-6.62-2.2h-.02l.04-.02.04-.01.03-.02 11.91-4.95 8.37-3.47c1.38-.58 2.77-1.15 4.15-1.71.1-.04.05-.04.12-.04Z"/></svg>