<svg xmlns="http://www.w3.org/2000/svg" width="32" height="33" fill="none"><path fill="#FFE000" d="M32 15.94v-.28l-.02-1a57.49 57.49 0 0 0-.16-3.02c-.1-1.34-.26-2.45-.48-3.28a5.2 5.2 0 0 0-1.28-2.3 4.95 4.95 0 0 0-2.23-1.34c-1-.28-2.99-.45-5.77-.56-1.33-.05-2.75-.09-4.16-.1l-1.38-.02h-1.04l-1.38.01c-1.41.02-2.83.06-4.16.1-2.78.12-4.76.3-5.77.57-.84.23-1.61.7-2.23 1.33a5.2 5.2 0 0 0-1.28 2.3C.44 9.2.29 10.3.18 11.65c-.08.97-.13 2-.16 3.02l-.02 1v.76l.02 1c.03 1.03.08 2.05.16 3.02.1 1.34.26 2.45.48 3.28a5.06 5.06 0 0 0 3.5 3.64c1.01.28 3 .45 5.78.56 1.33.05 2.75.09 4.16.1l1.38.02h1.04l1.38-.01c1.41-.02 2.83-.06 4.16-.1 2.78-.12 4.77-.3 5.77-.57a5.06 5.06 0 0 0 3.51-3.64c.22-.83.37-1.94.48-3.28.08-.97.13-2 .16-3.02l.02-1V15.94Zm-2.57.19v.26l-.02.95c-.03.98-.08 1.96-.15 2.88-.1 1.19-.24 2.16-.4 2.82a2.45 2.45 0 0 1-1.7 1.75c-.75.2-2.64.37-5.2.47a157.08 157.08 0 0 1-5.45.12H15.5l-1.35-.01c-1.4-.02-2.8-.06-4.1-.1-2.56-.11-4.46-.27-5.2-.48a2.45 2.45 0 0 1-1.7-1.75c-.17-.66-.3-1.63-.4-2.82a55.3 55.3 0 0 1-.15-2.88l-.01-.95v-.7l.01-.95c.03-.98.08-1.96.15-2.88.1-1.19.23-2.16.4-2.82.22-.85.87-1.52 1.7-1.75.75-.2 2.63-.37 5.2-.47a156.9 156.9 0 0 1 5.45-.12h1.02l1.35.01c1.4.02 2.8.06 4.1.1 2.56.11 4.46.27 5.2.48.83.23 1.48.9 1.7 1.75.16.66.3 1.63.4 2.82.07.92.12 1.9.15 2.88l.02.95v.44Zm-16.6 4.86L21.1 16l-8.29-4.9v9.89Z"/></svg>