<svg xmlns="http://www.w3.org/2000/svg" width="32" height="33" fill="none"><path fill="#FFE000" d="M32 16v-1.3a57.5 57.5 0 0 0-.2-3c0-1.4-.2-2.5-.5-3.3A5.2 5.2 0 0 0 30.1 6a5 5 0 0 0-2.3-1.4 137.7 137.7 0 0 0-10-.7H14.2l-4.2.2a33 33 0 0 0-5.7.5 5 5 0 0 0-2.3 1.4A5.2 5.2 0 0 0 .7 8.4a58 58 0 0 0-.6 6.3l-.1 1v1.7a57.4 57.4 0 0 0 .7 6.3 5 5 0 0 0 3.5 3.7 137.7 137.7 0 0 0 10 .7H17.8l4.2-.2c2.7 0 4.7-.3 5.7-.5a5 5 0 0 0 3.5-3.7 58 58 0 0 0 .6-6.3l.1-1V16Zm-2.6.1v1.3A64.4 64.4 0 0 1 29 23a2.5 2.5 0 0 1-1.7 1.8c-.8.2-2.7.4-5.2.5a157 157 0 0 1-5.5 0h-6.4c-2.6-.1-4.5-.3-5.2-.5A2.5 2.5 0 0 1 3.2 23c-.2-.6-.3-1.6-.4-2.8a55.3 55.3 0 0 1-.2-2.9v-2.6A64.4 64.4 0 0 1 3.2 9c.2-.8.8-1.5 1.7-1.7.7-.2 2.6-.4 5.2-.5a156.9 156.9 0 0 1 5.4-.1h2.4l4 .1c2.6.1 4.5.3 5.3.5.8.2 1.4.9 1.7 1.7l.4 2.9.1 2.8v1.4ZM12.8 21l8.3-5-8.3-4.9V21Z"/></svg>