<svg aria-hidden="true" style="position: absolute; width: 0; height: 0; overflow: hidden;" version="1.1"        xmlns="http://www.w3.org/2000/svg" xmlns:xlink="http://www.w3.org/1999/xlink">
    <defs>
        <symbol id="icon-logo" viewBox="0 0 138 32">
                <path d="M8.195 24.761l-1.806 0.398c-0.149-0.398-0.52-0.597-1.138-0.597-0.421 0-0.643 0.125-0.643 0.373 0 0.223 0.198 0.348 0.618 0.422 0.841 0.149 1.436 0.297 1.782 0.471s0.618 0.397 0.792 0.669c0.173 0.273 0.272 0.571 0.272 0.919 0 0.62-0.247 1.142-0.767 1.563s-1.286 0.621-2.351 0.621c-0.767 0-1.46-0.149-2.029-0.447s-0.94-0.77-1.089-1.365l1.905-0.272c0.149 0.446 0.569 0.669 1.287 0.669 0.272 0 0.471-0.049 0.618-0.124 0.124-0.074 0.199-0.173 0.199-0.273 0-0.099-0.050-0.173-0.125-0.223-0.099-0.049-0.322-0.099-0.668-0.199-0.718-0.173-1.213-0.297-1.534-0.421-0.318-0.13-0.579-0.344-0.763-0.614l-0.004-0.006c-0.199-0.298-0.322-0.596-0.322-0.969 0-0.619 0.247-1.141 0.742-1.538s1.163-0.595 2.005-0.595c0.767 0 1.436 0.149 1.98 0.446 0.545 0.273 0.891 0.645 1.039 1.091zM21.187 23.346l-2.92 6.203c-0.42 0.919-0.866 1.489-1.311 1.738s-0.99 0.372-1.609 0.372c-0.322 0-0.643-0.025-0.965-0.099v-1.637c0.519 0.049 0.891 0.074 1.138 0.074 0.618 0 0.94-0.174 0.94-0.496 0-0.074-0.024-0.223-0.073-0.397l-1.485-5.731h2.425l0.519 2.456c0.099 0.422 0.149 0.67 0.149 0.794 0.050-0.074 0.074-0.173 0.149-0.297 0.049-0.125 0.099-0.223 0.149-0.348l1.213-2.58h1.682v-0.050zM33.015 24.761l-1.807 0.398c-0.148-0.398-0.519-0.597-1.138-0.597-0.42 0-0.643 0.125-0.643 0.372 0 0.225 0.199 0.349 0.618 0.423 0.841 0.149 1.436 0.297 1.782 0.471s0.619 0.397 0.792 0.669c0.173 0.273 0.272 0.571 0.272 0.919 0 0.62-0.247 1.142-0.767 1.563s-1.287 0.62-2.351 0.62c-0.767 0-1.46-0.149-2.029-0.446s-0.941-0.77-1.090-1.365l1.906-0.273c0.148 0.447 0.569 0.67 1.287 0.67 0.272 0 0.47-0.049 0.618-0.124 0.124-0.074 0.198-0.174 0.198-0.273s-0.049-0.173-0.124-0.223c-0.099-0.050-0.322-0.099-0.669-0.199-0.718-0.173-1.213-0.297-1.534-0.421-0.318-0.13-0.579-0.344-0.763-0.615l-0.004-0.006c-0.198-0.297-0.322-0.595-0.322-0.967 0-0.621 0.247-1.142 0.743-1.539 0.495-0.396 1.162-0.595 2.004-0.595 0.767 0 1.436 0.149 1.981 0.447 0.544 0.272 0.891 0.645 1.039 1.091zM44.2 23.345l-0.273 1.563h-1.114l-0.371 2.184c-0.024 0.223-0.049 0.347-0.049 0.397 0 0.297 0.198 0.446 0.569 0.446 0.173 0 0.346-0.024 0.569-0.074l-0.272 1.588c-0.378 0.093-0.813 0.147-1.26 0.149h-0.001c-0.495 0-0.866-0.074-1.113-0.199-0.244-0.121-0.445-0.298-0.591-0.515l-0.003-0.005c-0.149-0.223-0.223-0.521-0.223-0.918 0-0.149 0.025-0.447 0.099-0.893l0.371-2.184h-0.842l0.247-1.563h0.842l0.346-1.811 2.203-0.050-0.322 1.861h1.188v0.025zM56.997 26.845h-4.208c-0.025 0.173-0.025 0.297-0.025 0.372 0 0.273 0.075 0.471 0.248 0.621s0.396 0.223 0.643 0.223c0.495 0 0.842-0.248 1.039-0.77l2.054 0.323c-0.281 0.614-0.723 1.113-1.273 1.456l-0.014 0.008c-0.594 0.372-1.262 0.546-1.98 0.546-0.915 0-1.658-0.248-2.202-0.77-0.569-0.521-0.842-1.215-0.842-2.133 0-0.969 0.346-1.812 1.014-2.506s1.534-1.042 2.623-1.042c0.916 0 1.634 0.273 2.178 0.819s0.816 1.265 0.816 2.159c0 0.199-0.024 0.446-0.074 0.695zM54.794 25.68c0.016-0.081 0.025-0.174 0.025-0.27 0-0.010-0-0.020-0-0.030l0 0.002c0-0.223-0.074-0.397-0.199-0.571-0.123-0.173-0.321-0.247-0.568-0.247s-0.496 0.099-0.694 0.297c-0.197 0.199-0.346 0.471-0.395 0.819h1.831zM64.72 23.347h2.078l-0.149 0.943c0.445-0.744 1.090-1.117 1.881-1.117 0.767 0 1.287 0.372 1.559 1.116 0.395-0.719 1.014-1.091 1.831-1.091 0.545 0 0.965 0.149 1.287 0.446s0.495 0.72 0.495 1.24c0 0.174-0.024 0.372-0.049 0.596l-0.668 3.97h-2.326l0.618-3.622c0.025-0.174 0.050-0.323 0.050-0.422 0-0.348-0.173-0.521-0.496-0.521-0.005-0-0.010-0-0.016-0-0.192 0-0.363 0.087-0.478 0.223l-0.001 0.001c-0.124 0.149-0.222 0.446-0.297 0.868l-0.593 3.498h-2.252l0.618-3.623c0.026-0.223 0.050-0.372 0.050-0.471 0-0.173-0.050-0.323-0.149-0.397-0.088-0.070-0.199-0.115-0.32-0.124l-0.002-0c-0.124 0-0.247 0.049-0.42 0.149s-0.297 0.372-0.372 0.843l-0.618 3.623h-2.251l0.989-6.128zM86.669 29.449h-2.4c0-0.123-0.025-0.222-0.025-0.272 0-0.199 0.026-0.446 0.050-0.72-0.471 0.77-1.138 1.167-2.005 1.167-0.569 0-1.040-0.174-1.41-0.496-0.348-0.348-0.545-0.744-0.545-1.265 0-0.372 0.099-0.72 0.297-1.042s0.471-0.571 0.816-0.744c0.346-0.175 0.718-0.298 1.090-0.373 0.37-0.050 1.088-0.149 2.177-0.248 0.049-0.149 0.074-0.273 0.074-0.348 0-0.347-0.223-0.496-0.693-0.496s-0.792 0.224-1.015 0.695l-1.979-0.398c0.495-1.141 1.609-1.712 3.316-1.712 0.866 0 1.534 0.149 2.054 0.447s0.742 0.744 0.742 1.34c0 0.273-0.149 1.191-0.445 2.779-0.099 0.596-0.173 0.993-0.173 1.191 0 0.125 0.024 0.297 0.073 0.496zM84.516 26.546c-1.113 0.074-1.658 0.447-1.658 1.067 0 0.348 0.173 0.521 0.545 0.521 0.222 0 0.47-0.099 0.692-0.297 0.199-0.223 0.347-0.645 0.421-1.29zM98.497 23.345l-0.272 1.563h-1.113l-0.372 2.184c-0.024 0.223-0.048 0.348-0.048 0.397 0 0.297 0.197 0.446 0.569 0.446 0.173 0 0.346-0.024 0.569-0.074l-0.272 1.588c-0.379 0.093-0.814 0.147-1.261 0.149h-0.001c-0.495 0-0.866-0.074-1.113-0.199-0.244-0.121-0.444-0.298-0.59-0.514l-0.003-0.005c-0.149-0.224-0.223-0.521-0.223-0.919 0-0.149 0.024-0.446 0.099-0.893l0.371-2.183h-0.841l0.247-1.564h0.841l0.346-1.811 2.202-0.050-0.321 1.861h1.187v0.025zM107.973 23.346l-1.014 6.128h-2.376l1.014-6.128h2.376zM108.368 20.989l-0.297 1.811h-2.376l0.297-1.811h2.375zM118.563 27.093l1.831 0.447c-0.322 0.794-0.767 1.34-1.287 1.637-0.544 0.297-1.089 0.447-1.658 0.447-0.841 0-1.534-0.273-2.054-0.795-0.544-0.545-0.791-1.215-0.791-2.058 0-0.969 0.321-1.812 0.94-2.531 0.618-0.744 1.46-1.091 2.499-1.091 0.742 0 1.385 0.223 1.905 0.669s0.791 1.042 0.791 1.762l-2.078 0.248c0-0.669-0.222-0.993-0.668-0.993-0.372 0-0.644 0.273-0.817 0.819s-0.247 1.018-0.247 1.415c0 0.595 0.222 0.893 0.669 0.893 0.445-0.024 0.766-0.297 0.965-0.868zM133.164 24.761l-1.807 0.398c-0.148-0.398-0.52-0.597-1.138-0.597-0.421 0-0.643 0.125-0.643 0.373 0 0.223 0.198 0.348 0.618 0.422 0.841 0.149 1.436 0.297 1.782 0.471s0.619 0.397 0.792 0.669c0.173 0.273 0.272 0.571 0.272 0.919 0 0.62-0.248 1.142-0.767 1.563s-1.287 0.621-2.352 0.621c-0.766 0-1.46-0.149-2.029-0.447s-0.94-0.77-1.089-1.365l1.905-0.272c0.149 0.446 0.57 0.669 1.287 0.669 0.272 0 0.47-0.049 0.619-0.124 0.124-0.074 0.197-0.173 0.197-0.273 0-0.099-0.048-0.173-0.124-0.223-0.099-0.049-0.322-0.099-0.668-0.199-0.718-0.173-1.213-0.297-1.534-0.421-0.318-0.13-0.579-0.344-0.763-0.614l-0.004-0.006c-0.222-0.273-0.322-0.596-0.322-0.969 0-0.619 0.247-1.141 0.742-1.538s1.163-0.595 2.005-0.595c0.767 0 1.435 0.149 1.98 0.446 0.545 0.273 0.891 0.645 1.040 1.091zM9.725 10.547l4.429 0.571c-0.519 1.812-1.41 3.3-2.647 4.442-1.263 1.166-2.845 1.737-4.752 1.737-2.078 0-3.712-0.695-4.925-2.109s-1.831-3.226-1.831-5.433c0-2.557 0.742-4.814 2.252-6.774 1.509-1.959 3.588-2.953 6.211-2.953 1.905 0 3.464 0.596 4.652 1.762 1.187 1.191 1.806 2.729 1.806 4.665l-4.652 0.347c-0.024-1.017-0.173-1.786-0.47-2.282s-0.792-0.744-1.51-0.744c-1.213 0-2.054 0.917-2.499 2.729s-0.668 3.25-0.668 4.292c0 1.687 0.668 2.556 1.98 2.556 0.643 0 1.187-0.223 1.584-0.644 0.396-0.472 0.742-1.192 1.040-2.16zM27.736 4.69l-5.815 12.406c-0.867 1.812-1.732 2.978-2.623 3.474s-1.955 0.744-3.217 0.744c-0.618 0-1.263-0.073-1.93-0.198v-3.275c1.014 0.099 1.782 0.149 2.301 0.149 1.263 0 1.881-0.347 1.881-1.017 0-0.173-0.049-0.446-0.149-0.794l-2.945-11.463h4.85l1.040 4.912c0.198 0.843 0.297 1.365 0.297 1.563 0.074-0.149 0.173-0.347 0.272-0.62 0.074-0.223 0.173-0.471 0.297-0.694l2.426-5.161h3.316v-0.026zM34.322 0.398l-0.965 5.831c0.643-0.77 1.213-1.265 1.707-1.514s1.064-0.372 1.683-0.372c1.163 0 2.128 0.421 2.821 1.265 0.718 0.843 1.064 2.058 1.064 3.696 0 2.010-0.569 3.821-1.683 5.459s-2.672 2.456-4.652 2.456c-1.881 0-3.192-0.77-3.935-2.333l-1.36 2.060h-2.128l2.745-16.55h4.702zM32.268 12.655c0 0.447 0.024 0.77 0.099 0.943s0.199 0.323 0.421 0.496c0.222 0.149 0.495 0.224 0.816 0.224 0.42 0 0.767-0.125 1.064-0.398s0.569-0.868 0.842-1.811c0.272-0.918 0.396-1.911 0.396-2.977 0-1.216-0.421-1.836-1.287-1.836-0.816 0-1.41 0.62-1.782 1.86l-0.569 3.498zM54.786 11.71h-8.413c-0.049 0.323-0.049 0.571-0.049 0.744 0 0.547 0.173 0.943 0.519 1.266 0.347 0.297 0.768 0.446 1.287 0.446 0.99 0 1.683-0.521 2.103-1.538l4.108 0.669c-0.519 1.191-1.386 2.159-2.573 2.903s-2.499 1.116-3.959 1.116c-1.832 0-3.292-0.521-4.43-1.563s-1.707-2.456-1.707-4.242c0-1.936 0.668-3.623 2.004-5.013s3.094-2.084 5.246-2.084c1.832 0 3.292 0.547 4.381 1.613 1.088 1.092 1.633 2.506 1.633 4.317 0 0.372-0.049 0.844-0.149 1.365zM50.406 9.354c0.049-0.248 0.049-0.447 0.049-0.571 0-0.447-0.124-0.819-0.396-1.142s-0.643-0.496-1.138-0.496c-0.519 0-0.989 0.199-1.41 0.596s-0.669 0.943-0.768 1.613h3.663zM57.855 4.691h4.058l-0.495 2.953c0.842-2.208 2.154-3.325 3.885-3.325 0.149 0 0.322 0.025 0.57 0.050l-0.545 4.367c-0.421-0.025-0.693-0.025-0.841-0.025-1.014 0-1.757 0.248-2.227 0.72s-0.816 1.315-1.014 2.506l-0.842 4.987h-4.653l2.104-12.233zM65.65 16.92l2.748-16.548h6.805c1.237 0 2.251 0.099 3.043 0.323 0.816 0.229 1.498 0.711 1.974 1.355l0.007 0.010c0.544 0.695 0.791 1.488 0.791 2.406 0 1.018-0.323 1.861-0.965 2.581-0.643 0.694-1.485 1.191-2.574 1.414 1.807 0.645 2.722 1.836 2.722 3.598 0 1.29-0.445 2.407-1.286 3.375-0.867 0.968-2.301 1.464-4.331 1.464h-8.933v0.024zM71.045 13.273h2.474c0.767 0 1.287-0.173 1.584-0.496s0.446-0.669 0.446-1.042c0-0.471-0.149-0.843-0.471-1.142s-0.792-0.421-1.411-0.421h-2.079l-0.545 3.101zM72.134 6.697h1.88c1.51 0 2.252-0.496 2.252-1.514 0-0.868-0.594-1.315-1.782-1.315h-1.881l-0.47 2.828zM88.268 4.689l-2.054 12.233h-4.752l2.054-12.233h4.752zM89.035 0l-0.594 3.598h-4.751l0.593-3.598h4.752zM95.123 17.293c-1.707 0-3.118-0.496-4.281-1.514s-1.732-2.407-1.732-4.144c0-2.109 0.669-3.846 2.005-5.186 1.336-1.365 3.043-2.035 5.073-2.035 1.88 0 3.365 0.521 4.454 1.589s1.658 2.382 1.658 3.92c0 2.307-0.718 4.119-2.128 5.433-1.411 1.29-3.093 1.936-5.048 1.936zM95.321 14.315c0.841 0 1.411-0.62 1.732-1.885s0.445-2.307 0.445-3.151c0-1.29-0.471-1.936-1.411-1.936-0.841 0-1.411 0.645-1.732 1.936s-0.471 2.332-0.471 3.151c0 1.24 0.496 1.885 1.436 1.885zM105.193 4.691h4.256l-0.322 1.986c0.322-0.819 0.866-1.415 1.609-1.787 0.691-0.359 1.509-0.57 2.376-0.571h0c1.039 0 1.88 0.273 2.524 0.819s0.965 1.265 0.965 2.159c0 0.347-0.049 0.77-0.124 1.24l-1.385 8.361h-4.653l1.238-7.344c0.074-0.471 0.124-0.769 0.124-0.943 0-0.694-0.371-1.042-1.089-1.042-0.965 0-1.558 0.645-1.782 1.961l-1.237 7.344h-4.553l2.054-12.183zM124.394 4.689l-2.054 12.233h-4.752l2.054-12.233h4.752zM125.185 0l-0.594 3.598h-4.752l0.594-3.598h4.752zM133.208 12.182l3.687 0.918c-0.668 1.588-1.534 2.679-2.598 3.299s-2.178 0.919-3.316 0.919c-1.683 0-3.069-0.546-4.133-1.613s-1.608-2.456-1.608-4.119c0-1.911 0.618-3.598 1.88-5.085 1.263-1.464 2.921-2.209 4.999-2.209 1.509 0 2.772 0.446 3.836 1.365s1.559 2.084 1.559 3.498l-4.133 0.496c0-1.315-0.445-1.985-1.336-1.985-0.767 0-1.311 0.545-1.634 1.637-0.321 1.091-0.494 2.035-0.494 2.828 0 1.192 0.445 1.787 1.36 1.787 0.891-0.024 1.534-0.595 1.93-1.737z"></path>
        </symbol>
    </defs>
</svg>
