<svg aria-hidden="true" style="position: absolute; width: 0; height: 0; overflow: hidden;" version="1.1"        xmlns="http://www.w3.org/2000/svg" xmlns:xlink="http://www.w3.org/1999/xlink">
    <defs>
        <symbol id="icon-logo" viewBox="0 0 138 32">
                <path d="M8.195 24.761l-1.806 0.398c-0.149-0.398-0.52-0.597-1.138-0.597-0.421 0-0.643 0.125-0.643 0.373 0 0.223 0.198 0.348 0.618 0.422 0.841 0.149 1.436 0.297 1.782 0.471s0.618 0.397 0.792 0.669c0.173 0.273 0.272 0.571 0.272 0.919 0 0.62-0.247 1.142-0.767 1.563s-1.286 0.621-2.351 0.621c-0.767 0-1.46-0.149-2.029-0.447s-0.94-0.77-1.089-1.365l1.905-0.272c0.149 0.446 0.569 0.669 1.287 0.669 0.272 0 0.471-0.049 0.618-0.124 0.124-0.074 0.199-0.173 0.199-0.273 0-0.099-0.050-0.173-0.125-0.223-0.099-0.049-0.322-0.099-0.668-0.199-0.718-0.173-1.213-0.297-1.534-0.421-0.318-0.13-0.579-0.344-0.763-0.614l-0.004-0.006c-0.199-0.298-0.322-0.596-0.322-0.969 0-0.619 0.247-1.141 0.742-1.538s1.163-0.595 2.005-0.595c0.767 0 1.436 0.149 1.98 0.446 0.545 0.273 0.891 0.645 1.039 1.091zM21.187 23.346l-2.92 6.203c-0.42 0.919-0.866 1.489-1.311 1.738s-0.99 0.372-1.609 0.372c-0.322 0-0.643-0.025-0.965-0.099v-1.637c0.519 0.049 0.891 0.074 1.138 0.074 0.618 0 0.94-0.174 0.94-0.496 0-0.074-0.024-0.223-0.073-0.397l-1.485-5.731h2.425l0.519 2.456c0.099 0.422 0.149 0.67 0.149 0.794 0.050-0.074 0.074-0.173 0.149-0.297 0.049-0.125 0.099-0.223 0.149-0.348l1.213-2.58h1.682v-0.050zM33.015 24.761l-1.807 0.398c-0.148-0.398-0.519-0.597-1.138-0.597-0.42 0-0.643 0.125-0.643 0.372 0 0.225 0.199 0.349 0.618 0.423 0.841 0.149 1.436 0.297 1.782 0.471s0.619 0.397 0.792 0.669c0.173 0.273 0.272 0.571 0.272 0.919 0 0.62-0.247 1.142-0.767 1.563s-1.287 0.62-2.351 0.62c-0.767 0-1.46-0.149-2.029-0.446s-0.941-0.77-1.090-1.365l1.906-0.273c0.148 0.447 0.569 0.67 1.287 0.67 0.272 0 0.47-0.049 0.618-0.124 0.124-0.074 0.198-0.174 0.198-0.273s-0.049-0.173-0.124-0.223c-0.099-0.050-0.322-0.099-0.669-0.199-0.718-0.173-1.213-0.297-1.534-0.421-0.318-0.13-0.579-0.344-0.763-0.615l-0.004-0.006c-0.198-0.297-0.322-0.595-0.322-0.967 0-0.621 0.247-1.142 0.743-1.539 0.495-0.396 1.162-0.595 2.004-0.595 0.767 0 1.436 0.149 1.981 0.447 0.544 0.272 0.891 0.645 1.039 1.091zM44.2 23.345l-0.273 1.563h-1.114l-0.371 2.184c-0.024 0.223-0.049 0.347-0.049 0.397 0 0.297 0.198 0.446 0.569 0.446 0.173 0 0.346-0.024 0.569-0.074l-0.272 1.588c-0.378 0.093-0.813 0.147-1.26 0.149h-0.001c-0.495 0-0.866-0.074-1.113-0.199-0.244-0.121-0.445-0.298-0.591-0.515l-0.003-0.005c-0.149-0.223-0.223-0.521-0.223-0.918 0-0.149 0.025-0.447 0.099-0.893l0.371-2.184h-0.842l0.247-1.563h0.842l0.346-1.811 2.203-0.050-0.322 1.861h1.188v0.025zM56.997 26.845h-4.208c-0.025 0.173-0.025 0.297-0.025 0.372 0 0.273 0.075 0.471 0.248 0.621s0.396 0.223 0.643 0.223c0.495 0 0.842-0.248 1.039-0.77l2.054 0.323c-0.281 0.614-0.723 1.113-1.273 1.456l-0.014 0.008c-0.594 0.372-1.262 0.546-1.98 0.546-0.915 0-1.658-0.248-2.202-0.77-0.569-0.521-0.842-1.215-0.842-2.133 0-0.969 0.346-1.812 1.014-2.506s1.534-1.042 2.623-1.042c0.916 0 1.634 0.273 2.178 0.819s0.816 1.265 0.816 2.159c0 0.199-0.024 0.446-0.074 0.695zM54.794 25.68c0.016-0.081 0.025-0.174 0.025-0.27 0-0.010-0-0.020-0-0.030l0 0.002c0-0.223-0.074-0.397-0.199-0.571-0.123-0.173-0.321-0.247-0.568-0.247s-0.496 0.099-0.694 0.297c-0.197 0.199-0.346 0.471-0.395 0.819h1.831zM64.72 23.347h2.078l-0.149 0.943c0.445-0.744 1.090-1.117 1.881-1.117 0.767 0 1.287 0.372 1.559 1.116 0.395-0.719 1.014-1.091 1.831-1.091 0.545 0 0.965 0.149 1.287 0.446s0.495 0.72 0.495 1.24c0 0.174-0.024 0.372-0.049 0.596l-0.668 3.97h-2.326l0.618-3.622c0.025-0.174 0.050-0.323 0.050-0.422 0-0.348-0.173-0.521-0.496-0.521-0.005-0-0.010-0-0.016-0-0.192 0-0.363 0.087-0.478 0.223l-0.001 0.001c-0.124 0.149-0.222 0.446-0.297 0.868l-0.593 3.498h-2.252l0.618-3.623c0.026-0.223 0.050-0.372 0.050-0.471 0-0.173-0.050-0.323-0.149-0.397-0.088-0.070-0.199-0.115-0.32-0.124l-0.002-0c-0.124 0-0.247 0.049-0.42 0.149s-0.297 0.372-0.372 0.843l-0.618 3.623h-2.251l0.989-6.128zM86.669 29.449h-2.4c0-0.123-0.025-0.222-0.025-0.272 0-0.199 0.026-0.446 0.050-0.72-0.471 0.77-1.138 1.167-2.005 1.167-0.569 0-1.040-0.174-1.41-0.496-0.348-0.348-0.545-0.744-0.545-1.265 0-0.372 0.099-0.72 0.297-1.042s0.471-0.571 0.816-0.744c0.346-0.175 0.718-0.298 1.090-0.373 0.37-0.050 1.088-0.149 2.177-0.248 0.049-0.149 0.074-0.273 0.074-0.348 0-0.347-0.223-0.496-0.693-0.496s-0.792 0.224-1.015 0.695l-1.979-0.398c0.495-1.141 1.609-1.712 3.316-1.712 0.866 0 1.534 0.149 2.054 0.447s0.742 0.744 0.742 1.34c0 0.273-0.149 1.191-0.445 2.779-0.099 0.596-0.173 0.993-0.173 1.191 0 0.125 0.024 0.297 0.073 0.496zM84.516 26.546c-1.113 0.074-1.658 0.447-1.658 1.067 0 0.348 0.173 0.521 0.545 0.521 0.222 0 0.47-0.099 0.692-0.297 0.199-0.223 0.347-0.645 0.421-1.29zM98.497 23.345l-0.272 1.563h-1.113l-0.372 2.184c-0.024 0.223-0.048 0.348-0.048 0.397 0 0.297 0.197 0.446 0.569 0.446 0.173 0 0.346-0.024 0.569-0.074l-0.272 1.588c-0.379 0.093-0.814 0.147-1.261 0.149h-0.001c-0.495 0-0.866-0.074-1.113-0.199-0.244-0.121-0.444-0.298-0.59-0.514l-0.003-0.005c-0.149-0.224-0.223-0.521-0.223-0.919 0-0.149 0.024-0.446 0.099-0.893l0.371-2.183h-0.841l0.247-1.564h0.841l0.346-1.811 2.202-0.050-0.321 1.861h1.187v0.025zM107.973 23.346l-1.014 6.128h-2.376l1.014-6.128h2.376zM108.368 20.989l-0.297 1.811h-2.376l0.297-1.811h2.375zM118.563 27.093l1.831 0.447c-0.322 0.794-0.767 1.34-1.287 1.637-0.544 0.297-1.089 0.447-1.658 0.447-0.841 0-1.534-0.273-2.054-0.795-0.544-0.545-0.791-1.215-0.791-2.058 0-0.969 0.321-1.812 0.94-2.531 0.618-0.744 1.46-1.091 2.499-1.091 0.742 0 1.385 0.223 1.905 0.669s0.791 1.042 0.791 1.762l-2.078 0.248c0-0.669-0.222-0.993-0.668-0.993-0.372 0-0.644 0.273-0.817 0.819s-0.247 1.018-0.247 1.415c0 0.595 0.222 0.893 0.669 0.893 0.445-0.024 0.766-0.297 0.965-0.868zM133.164 24.761l-1.807 0.398c-0.148-0.398-0.52-0.597-1.138-0.597-0.421 0-0.643 0.125-0.643 0.373 0 0.223 0.198 0.348 0.618 0.422 0.841 0.149 1.436 0.297 1.782 0.471s0.619 0.397 0.792 0.669c0.173 0.273 0.272 0.571 0.272 0.919 0 0.62-0.248 1.142-0.767 1.563s-1.287 0.621-2.352 0.621c-0.766 0-1.46-0.149-2.029-0.447s-0.94-0.77-1.089-1.365l1.905-0.272c0.149 0.446 0.57 0.669 1.287 0.669 0.272 0 0.47-0.049 0.619-0.124 0.124-0.074 0.197-0.173 0.197-0.273 0-0.099-0.048-0.173-0.124-0.223-0.099-0.049-0.322-0.099-0.668-0.199-0.718-0.173-1.213-0.297-1.534-0.421-0.318-0.13-0.579-0.344-0.763-0.614l-0.004-0.006c-0.222-0.273-0.322-0.596-0.322-0.969 0-0.619 0.247-1.141 0.742-1.538s1.163-0.595 2.005-0.595c0.767 0 1.435 0.149 1.98 0.446 0.545 0.273 0.891 0.645 1.040 1.091zM9.725 10.547l4.429 0.571c-0.519 1.812-1.41 3.3-2.647 4.442-1.263 1.166-2.845 1.737-4.752 1.737-2.078 0-3.712-0.695-4.925-2.109s-1.831-3.226-1.831-5.433c0-2.557 0.742-4.814 2.252-6.774 1.509-1.959 3.588-2.953 6.211-2.953 1.905 0 3.464 0.596 4.652 1.762 1.187 1.191 1.806 2.729 1.806 4.665l-4.652 0.347c-0.024-1.017-0.173-1.786-0.47-2.282s-0.792-0.744-1.51-0.744c-1.213 0-2.054 0.917-2.499 2.729s-0.668 3.25-0.668 4.292c0 1.687 0.668 2.556 1.98 2.556 0.643 0 1.187-0.223 1.584-0.644 0.396-0.472 0.742-1.192 1.040-2.16zM27.736 4.69l-5.815 12.406c-0.867 1.812-1.732 2.978-2.623 3.474s-1.955 0.744-3.217 0.744c-0.618 0-1.263-0.073-1.93-0.198v-3.275c1.014 0.099 1.782 0.149 2.301 0.149 1.263 0 1.881-0.347 1.881-1.017 0-0.173-0.049-0.446-0.149-0.794l-2.945-11.463h4.85l1.040 4.912c0.198 0.843 0.297 1.365 0.297 1.563 0.074-0.149 0.173-0.347 0.272-0.62 0.074-0.223 0.173-0.471 0.297-0.694l2.426-5.161h3.316v-0.026zM34.322 0.398l-0.965 5.831c0.643-0.77 1.213-1.265 1.707-1.514s1.064-0.372 1.683-0.372c1.163 0 2.128 0.421 2.821 1.265 0.718 0.843 1.064 2.058 1.064 3.696 0 2.010-0.569 3.821-1.683 5.459s-2.672 2.456-4.652 2.456c-1.881 0-3.192-0.77-3.935-2.333l-1.36 2.060h-2.128l2.745-16.55h4.702zM32.268 12.655c0 0.447 0.024 0.77 0.099 0.943s0.199 0.323 0.421 0.496c0.222 0.149 0.495 0.224 0.816 0.224 0.42 0 0.767-0.125 1.064-0.398s0.569-0.868 0.842-1.811c0.272-0.918 0.396-1.911 0.396-2.977 0-1.216-0.421-1.836-1.287-1.836-0.816 0-1.41 0.62-1.782 1.86l-0.569 3.498zM54.786 11.71h-8.413c-0.049 0.323-0.049 0.571-0.049 0.744 0 0.547 0.173 0.943 0.519 1.266 0.347 0.297 0.768 0.446 1.287 0.446 0.99 0 1.683-0.521 2.103-1.538l4.108 0.669c-0.519 1.191-1.386 2.159-2.573 2.903s-2.499 1.116-3.959 1.116c-1.832 0-3.292-0.521-4.43-1.563s-1.707-2.456-1.707-4.242c0-1.936 0.668-3.623 2.004-5.013s3.094-2.084 5.246-2.084c1.832 0 3.292 0.547 4.381 1.613 1.088 1.092 1.633 2.506 1.633 4.317 0 0.372-0.049 0.844-0.149 1.365zM50.406 9.354c0.049-0.248 0.049-0.447 0.049-0.571 0-0.447-0.124-0.819-0.396-1.142s-0.643-0.496-1.138-0.496c-0.519 0-0.989 0.199-1.41 0.596s-0.669 0.943-0.768 1.613h3.663zM57.855 4.691h4.058l-0.495 2.953c0.842-2.208 2.154-3.325 3.885-3.325 0.149 0 0.322 0.025 0.57 0.050l-0.545 4.367c-0.421-0.025-0.693-0.025-0.841-0.025-1.014 0-1.757 0.248-2.227 0.72s-0.816 1.315-1.014 2.506l-0.842 4.987h-4.653l2.104-12.233zM65.65 16.92l2.748-16.548h6.805c1.237 0 2.251 0.099 3.043 0.323 0.816 0.229 1.498 0.711 1.974 1.355l0.007 0.010c0.544 0.695 0.791 1.488 0.791 2.406 0 1.018-0.323 1.861-0.965 2.581-0.643 0.694-1.485 1.191-2.574 1.414 1.807 0.645 2.722 1.836 2.722 3.598 0 1.29-0.445 2.407-1.286 3.375-0.867 0.968-2.301 1.464-4.331 1.464h-8.933v0.024zM71.045 13.273h2.474c0.767 0 1.287-0.173 1.584-0.496s0.446-0.669 0.446-1.042c0-0.471-0.149-0.843-0.471-1.142s-0.792-0.421-1.411-0.421h-2.079l-0.545 3.101zM72.134 6.697h1.88c1.51 0 2.252-0.496 2.252-1.514 0-0.868-0.594-1.315-1.782-1.315h-1.881l-0.47 2.828zM88.268 4.689l-2.054 12.233h-4.752l2.054-12.233h4.752zM89.035 0l-0.594 3.598h-4.751l0.593-3.598h4.752zM95.123 17.293c-1.707 0-3.118-0.496-4.281-1.514s-1.732-2.407-1.732-4.144c0-2.109 0.669-3.846 2.005-5.186 1.336-1.365 3.043-2.035 5.073-2.035 1.88 0 3.365 0.521 4.454 1.589s1.658 2.382 1.658 3.92c0 2.307-0.718 4.119-2.128 5.433-1.411 1.29-3.093 1.936-5.048 1.936zM95.321 14.315c0.841 0 1.411-0.62 1.732-1.885s0.445-2.307 0.445-3.151c0-1.29-0.471-1.936-1.411-1.936-0.841 0-1.411 0.645-1.732 1.936s-0.471 2.332-0.471 3.151c0 1.24 0.496 1.885 1.436 1.885zM105.193 4.691h4.256l-0.322 1.986c0.322-0.819 0.866-1.415 1.609-1.787 0.691-0.359 1.509-0.57 2.376-0.571h0c1.039 0 1.88 0.273 2.524 0.819s0.965 1.265 0.965 2.159c0 0.347-0.049 0.77-0.124 1.24l-1.385 8.361h-4.653l1.238-7.344c0.074-0.471 0.124-0.769 0.124-0.943 0-0.694-0.371-1.042-1.089-1.042-0.965 0-1.558 0.645-1.782 1.961l-1.237 7.344h-4.553l2.054-12.183zM124.394 4.689l-2.054 12.233h-4.752l2.054-12.233h4.752zM125.185 0l-0.594 3.598h-4.752l0.594-3.598h4.752zM133.208 12.182l3.687 0.918c-0.668 1.588-1.534 2.679-2.598 3.299s-2.178 0.919-3.316 0.919c-1.683 0-3.069-0.546-4.133-1.613s-1.608-2.456-1.608-4.119c0-1.911 0.618-3.598 1.88-5.085 1.263-1.464 2.921-2.209 4.999-2.209 1.509 0 2.772 0.446 3.836 1.365s1.559 2.084 1.559 3.498l-4.133 0.496c0-1.315-0.445-1.985-1.336-1.985-0.767 0-1.311 0.545-1.634 1.637-0.321 1.091-0.494 2.035-0.494 2.828 0 1.192 0.445 1.787 1.36 1.787 0.891-0.024 1.534-0.595 1.93-1.737z"></path>
        </symbol>
        <symbol id="icon-phone" viewBox="0 0 31 32">
            <path d="M25.212 28.16h-0.165c-19.055-1.096-21.76-17.173-22.138-22.080-0.006-0.069-0.009-0.15-0.009-0.232 0-1.528 1.178-2.781 2.675-2.9l0.010-0.001h5.343c0.001 0 0.001 0 0.002 0 0.813 0 1.509 0.5 1.797 1.209l0.005 0.013 1.474 3.627c0.089 0.214 0.14 0.463 0.14 0.724 0 0.535-0.217 1.019-0.567 1.37v0l-2.065 2.085c0.679 3.759 3.595 6.681 7.294 7.361l0.056 0.009 2.104-2.085c0.349-0.34 0.826-0.549 1.352-0.549 0.271 0 0.53 0.056 0.765 0.157l-0.013-0.005 3.656 1.464c0.706 0.3 1.193 0.988 1.193 1.79 0 0.005-0 0.010-0 0.014v-0.001 5.12c0 1.607-1.302 2.909-2.909 2.909v0zM5.818 4.887c-0.536 0-0.97 0.434-0.97 0.97v0 0.078c0.446 5.741 3.307 19.316 20.305 20.286 0.018 0.001 0.040 0.002 0.062 0.002 0.515 0 0.937-0.403 0.966-0.911l0-0.003v-5.178l-3.656-1.464-2.783 2.764-0.465-0.058c-8.436-1.057-9.581-9.493-9.581-9.581l-0.058-0.465 2.754-2.783-1.455-3.656h-5.12z"></path>
        </symbol>
        <symbol id="icon-admin-site" viewBox="0 0 31 32">
            <path d="M13.964 0.039c-7.712 0-13.964 6.252-13.964 13.964s6.252 13.964 13.964 13.964v0c7.712 0 13.964-6.252 13.964-13.964s-6.252-13.964-13.964-13.964v0zM1.722 15.057h3.894c0.062 1.412 0.259 2.814 0.59 4.189h-3.351c-0.594-1.222-0.997-2.643-1.129-4.143l-0.003-0.046zM15.019 6.679v-4.794c1.51 0.585 2.715 1.679 3.428 3.067l0.017 0.036c0.318 0.538 0.599 1.099 0.838 1.676l-4.282 0.016zM20.015 8.774c0.36 1.37 0.574 2.773 0.636 4.189h-5.632v-4.189h4.996zM12.909 1.885v4.794h-4.282c0.239-0.578 0.52-1.137 0.838-1.676 0.727-1.43 1.932-2.53 3.401-3.104l0.044-0.015zM12.909 8.774v4.189h-5.617c0.062-1.416 0.276-2.819 0.636-4.189h4.98zM5.617 12.947h-3.894c0.135-1.546 0.539-2.968 1.164-4.262l-0.032 0.073h3.351c-0.311 1.233-0.522 2.669-0.588 4.142l-0.002 0.047zM7.292 15.057h5.617v4.189h-4.98c-0.339-1.235-0.567-2.669-0.635-4.145l-0.002-0.044zM12.924 21.264v4.794c-1.51-0.585-2.715-1.679-3.428-3.067l-0.017-0.036c-0.283-0.467-0.564-1.018-0.805-1.589l-0.033-0.087 4.282-0.015zM15.019 26.058v-4.717h4.282c-0.274 0.658-0.555 1.209-0.871 1.736l0.033-0.060c-0.73 1.424-1.934 2.518-3.401 3.088l-0.044 0.015v-0.062zM15.019 19.169v-4.189h5.617c-0.069 1.52-0.297 2.954-0.668 4.329l0.032-0.14h-4.98zM22.326 14.98h3.894c-0.135 1.546-0.539 2.968-1.164 4.262l0.032-0.073h-3.367c0.326-1.35 0.524-2.726 0.59-4.111l0.015-0.078zM22.326 12.885c-0.079-1.499-0.295-2.906-0.637-4.263l0.032 0.151h3.351c0.594 1.222 0.997 2.643 1.129 4.143l0.003 0.046-3.879-0.078zM23.878 6.679h-2.777c-0.541-1.497-1.271-2.791-2.179-3.939l0.022 0.029c1.972 0.899 3.611 2.229 4.849 3.878l0.023 0.032h0.062zM8.983 2.769c-0.886 1.119-1.616 2.413-2.126 3.814l-0.031 0.096h-2.715c1.261-1.68 2.899-3.011 4.794-3.878l0.077-0.032zM4.096 21.388h2.731c0.541 1.497 1.271 2.791 2.179 3.939l-0.022-0.029c-1.976-0.912-3.615-2.258-4.848-3.923l-0.024-0.034-0.016 0.047zM18.928 25.297c0.886-1.119 1.616-2.413 2.126-3.814l0.031-0.096h2.731c-1.267 1.656-2.904 2.966-4.793 3.816l-0.078 0.032-0.015 0.062z"></path>
        </symbol>
        <symbol id="icon-telegram" viewBox="0 0 31 32">
            <path d="M26.398 6.829c-0.307 0.023-0.59 0.096-0.852 0.21l0.017-0.007h-0.004c-0.255 0.104-1.468 0.625-3.313 1.414l-6.609 2.841c-4.742 2.036-9.404 4.044-9.404 4.044l0.055-0.022s-0.321 0.108-0.657 0.342c-0.207 0.136-0.386 0.311-0.526 0.519-0.16 0.239-0.256 0.534-0.256 0.851 0 0.058 0.003 0.114 0.009 0.17l-0.001-0.007c0.080 0.659 0.499 1.055 0.8 1.273 0.304 0.221 0.594 0.325 0.594 0.325h0.008l4.371 1.503c0.196 0.642 1.332 4.454 1.605 5.331 0.162 0.525 0.318 0.853 0.514 1.104 0.095 0.128 0.207 0.235 0.339 0.32 0.070 0.042 0.143 0.074 0.22 0.097l-0.045-0.011c0.014 0.004 0.024 0.015 0.034 0.018 0.036 0.010 0.060 0.014 0.107 0.021 0.691 0.213 1.247-0.225 1.247-0.225l0.032-0.026 2.581-2.398 4.325 3.387 0.099 0.043c0.902 0.404 1.815 0.179 2.298-0.217 0.486-0.399 0.675-0.911 0.675-0.911l0.031-0.081 3.343-17.478c0.095-0.431 0.119-0.836 0.015-1.228-0.112-0.403-0.361-0.736-0.694-0.952l-0.006-0.004c-0.248-0.157-0.549-0.249-0.872-0.249-0.029 0-0.058 0.001-0.087 0.002l0.004-0zM26.308 8.702c-0.004 0.058 0.007 0.051-0.017 0.162v0.010l-3.313 17.297c-0.015 0.024-0.039 0.078-0.105 0.132-0.070 0.057-0.125 0.092-0.417-0.025l-5.291-4.141-3.196 2.974 0.672-4.377 8.645-8.223c0.356-0.337 0.238-0.409 0.238-0.409 0.024-0.415-0.538-0.121-0.538-0.121l-10.901 6.891-0.004-0.018-5.238-1.802c0.011-0.004 0.020-0.007 0.029-0.011l-0.001 0.001 0.029-0.015 0.027-0.010s4.664-2.007 9.408-4.045l6.607-2.841c1.091-0.469 2.183-0.935 3.277-1.398 0.073-0.029 0.039-0.029 0.091-0.029v-0.001zM5.818 0.039c-3.213 0-5.818 2.605-5.818 5.818s2.605 5.818 5.818 5.818v0c3.213 0 5.818-2.605 5.818-5.818s-2.605-5.818-5.818-5.818v0zM6.361 2.139c0.567 0 0.734 0.33 0.734 0.706 0 0.469-0.375 0.904-1.018 0.904-0.536 0-0.792-0.27-0.776-0.717 0-0.376 0.314-0.892 1.060-0.892zM4.909 9.341c-0.388 0-0.671-0.236-0.401-1.268l0.444-1.833c0.078-0.294 0.090-0.412 0-0.412-0.116 0-0.619 0.204-0.916 0.402l-0.194-0.317c0.943-0.786 2.027-1.249 2.49-1.249 0.388 0 0.453 0.459 0.259 1.164l-0.509 1.928c-0.090 0.34-0.051 0.458 0.039 0.458 0.116 0 0.497-0.141 0.872-0.436l0.219 0.296c-0.916 0.916-1.916 1.268-2.303 1.268z"></path>
        </symbol>
        <symbol id="icon-mail" viewBox="0 0 31 32">
            <path d="M1.939 6.827l0.97-0.97h25.212l0.97 0.97v17.455l-0.97 0.97h-25.212l-0.97-0.97v-17.455zM3.879 8.834v14.478h23.273v-14.476l-11.035 8.463h-1.183l-11.055-8.465zM25.27 7.796h-19.51l9.755 7.503 9.755-7.503z"></path>
        </symbol>
        <symbol id="icon-instagram" viewBox="0 0 31 32">
            <path d="M9.649 1.416c1.522-0.068 2.007-0.087 5.867-0.087s4.344 0.019 5.867 0.097c1.513 0.058 2.55 0.301 3.452 0.65 0.95 0.359 1.804 0.921 2.521 1.649 0.706 0.693 1.263 1.534 1.623 2.474l0.016 0.048c0.349 0.902 0.582 1.939 0.659 3.442 0.068 1.522 0.087 2.007 0.087 5.867s-0.019 4.344-0.097 5.867c-0.021 1.245-0.258 2.429-0.674 3.524l0.024-0.072c-0.38 0.987-0.94 1.828-1.647 2.52l-0.001 0.001c-0.694 0.705-1.535 1.262-2.473 1.623l-0.048 0.016c-0.892 0.349-1.939 0.582-3.442 0.659-1.522 0.068-2.007 0.087-5.867 0.087s-4.344-0.019-5.867-0.097c-1.245-0.021-2.429-0.258-3.524-0.674l0.072 0.024c-0.987-0.38-1.828-0.94-2.52-1.647l-0.001-0.001c-0.705-0.694-1.262-1.535-1.623-2.473l-0.016-0.048c-0.349-0.892-0.582-1.939-0.659-3.442-0.068-1.522-0.087-2.007-0.087-5.867s0.019-4.344 0.097-5.857c0.058-1.522 0.301-2.55 0.65-3.462 0.38-0.987 0.94-1.828 1.647-2.52l0.001-0.001c0.694-0.705 1.535-1.262 2.473-1.623l0.048-0.016c0.902-0.349 1.939-0.582 3.442-0.659zM21.265 3.976c-1.503-0.068-1.949-0.078-5.75-0.078s-4.247 0.010-5.75 0.078c-0.949 0.010-1.855 0.187-2.692 0.503l0.054-0.018c-0.659 0.262-1.135 0.572-1.639 1.067-0.462 0.449-0.825 0.996-1.057 1.608l-0.010 0.030c-0.298 0.783-0.475 1.688-0.485 2.633l-0 0.004c-0.068 1.503-0.078 1.949-0.078 5.75s0.010 4.247 0.078 5.75c0.068 1.387 0.291 2.133 0.485 2.638 0.233 0.621 0.601 1.173 1.067 1.639s1.018 0.834 1.639 1.067c0.504 0.194 1.261 0.417 2.638 0.485 1.503 0.068 1.949 0.078 5.75 0.078s4.247-0.010 5.75-0.078c0.949-0.010 1.855-0.187 2.692-0.503l-0.054 0.018c0.643-0.241 1.19-0.605 1.638-1.066l0.001-0.001c0.465-0.465 0.834-1.018 1.067-1.639 0.194-0.504 0.417-1.261 0.485-2.638 0.068-1.503 0.078-1.949 0.078-5.75s-0.010-4.247-0.078-5.75c-0.010-0.949-0.187-1.855-0.503-2.692l0.018 0.054c-0.242-0.643-0.605-1.19-1.066-1.638l-0.001-0.001c-0.449-0.462-0.996-0.825-1.608-1.057l-0.030-0.010c-0.783-0.298-1.688-0.475-2.633-0.485l-0.004-0zM13.702 19.937c0.611 0.306 1.33 0.485 2.092 0.485 2.624 0 4.752-2.127 4.752-4.752 0-2.068-1.321-3.827-3.164-4.48l-0.033-0.010c-0.463-0.166-0.997-0.261-1.554-0.261-2.624 0-4.752 2.127-4.752 4.752 0 1.862 1.072 3.475 2.632 4.254l0.027 0.012zM10.347 10.385c1.334-1.399 3.213-2.269 5.295-2.269 4.038 0 7.311 3.273 7.311 7.312 0 2.082-0.87 3.96-2.266 5.292l-0.003 0.003c-1.309 1.249-3.086 2.017-5.042 2.017-4.038 0-7.312-3.273-7.312-7.311 0-1.956 0.768-3.733 2.020-5.045l-0.003 0.003zM24.446 9.329c0.357-0.318 0.582-0.779 0.582-1.292 0-0.953-0.773-1.726-1.726-1.726-0.477 0-0.909 0.194-1.221 0.507l-0 0c-0.336 0.316-0.546 0.764-0.546 1.261 0 0.955 0.774 1.729 1.729 1.729 0.458 0 0.875-0.178 1.184-0.469l-0.001 0.001z"></path>
        </symbol>
        <symbol id="icon-facebook" viewBox="0 0 31 32">
            <path d="M3.617 1.008c-1.458 0.011-2.636 1.19-2.647 2.646v23.788c0 1.455 1.202 2.647 2.647 2.647h23.796c1.455 0 2.647-1.202 2.647-2.647v-23.787c0-1.455-1.202-2.647-2.647-2.647h-23.796zM3.617 3.656h23.796v23.787h-6.856v-8.921h3.433l0.485-3.976h-3.918v-2.56c0-1.154 0.291-1.939 1.939-1.939h2.153v-3.588c-0.369-0.048-1.648-0.126-3.103-0.126-3.045 0-5.12 1.833-5.12 5.236v2.987h-3.471v3.966h3.471v8.921h-12.81v-23.787z"></path>
        </symbol>
        <symbol id="icon-youtube" viewBox="0 0 31 32">
            <path d="M31.030 15.457v-0.271l-0.019-0.97c-0.030-1.101-0.086-2.118-0.168-3.128l0.013 0.2c-0.097-1.299-0.252-2.376-0.465-3.181-0.229-0.873-0.661-1.625-1.243-2.232l0.002 0.002c-0.577-0.602-1.308-1.053-2.129-1.291l-0.034-0.008c-0.97-0.271-2.899-0.436-5.595-0.543-1.29-0.049-2.667-0.087-4.034-0.097l-1.338-0.019h-1.008l-1.338 0.010c-1.367 0.019-2.744 0.058-4.034 0.097-2.696 0.116-4.616 0.291-5.595 0.553-0.815 0.223-1.561 0.679-2.162 1.29-0.58 0.605-1.012 1.357-1.233 2.195l-0.008 0.035c-0.213 0.824-0.359 1.891-0.465 3.2-0.078 0.941-0.126 1.939-0.155 2.928l-0.019 0.97v0.737l0.019 0.97c0.029 0.999 0.078 1.988 0.155 2.928 0.097 1.299 0.252 2.376 0.465 3.181 0.433 1.704 1.716 3.031 3.359 3.521l0.035 0.009c0.979 0.271 2.909 0.436 5.605 0.543 1.29 0.049 2.667 0.087 4.034 0.097l1.338 0.019h1.009l1.338-0.010c1.367-0.019 2.744-0.058 4.034-0.097 2.696-0.116 4.625-0.291 5.595-0.553 1.682-0.495 2.969-1.824 3.396-3.496l0.007-0.034c0.213-0.805 0.359-1.881 0.465-3.181 0.078-0.941 0.126-1.939 0.155-2.928l0.019-0.97v-0.475zM28.538 15.641v0.252l-0.019 0.921c-0.029 0.95-0.078 1.901-0.145 2.793-0.097 1.154-0.233 2.095-0.388 2.735-0.214 0.821-0.837 1.459-1.632 1.693l-0.017 0.004c-0.727 0.194-2.56 0.359-5.042 0.456-1.541 0.065-3.39 0.107-5.246 0.116l-0.038 0h-0.979l-1.309-0.010c-1.358-0.019-2.715-0.058-3.976-0.097-2.482-0.107-4.325-0.262-5.042-0.465-0.812-0.238-1.434-0.876-1.645-1.68l-0.004-0.017c-0.165-0.64-0.291-1.581-0.388-2.735-0.065-0.773-0.118-1.744-0.144-2.721l-0.002-0.072-0.010-0.921v-0.679l0.010-0.921c0.029-0.95 0.078-1.901 0.145-2.793 0.097-1.154 0.223-2.095 0.388-2.735 0.213-0.824 0.844-1.474 1.648-1.697 0.727-0.194 2.55-0.359 5.042-0.456 1.541-0.065 3.39-0.107 5.247-0.116l0.038-0h0.989l1.309 0.010c1.358 0.019 2.715 0.058 3.976 0.097 2.482 0.107 4.325 0.262 5.042 0.465 0.805 0.223 1.435 0.873 1.648 1.697 0.155 0.64 0.291 1.581 0.388 2.735 0.068 0.892 0.116 1.842 0.145 2.793l0.019 0.921v0.427zM12.441 20.354l8.019-4.839-8.039-4.752v9.59z"></path>
        </symbol>
        <symbol id="icon-linkedin" viewBox="0 0 31 32">
            <path d="M12.189 11.636h4.8v2.395c0.698-1.377 2.473-2.618 5.139-2.618 5.101 0 6.313 2.744 6.313 7.758v9.309h-5.169v-8.155c0-2.861-0.689-4.48-2.453-4.48-2.444 0-3.462 1.745-3.462 4.48v8.155h-5.168v-16.844zM3.326 28.267h5.169v-16.853h-5.168v16.853zM9.241 5.915c-0.002 0.911-0.376 1.735-0.979 2.327l-0.001 0.001c-0.601 0.599-1.431 0.969-2.347 0.969-1.827 0-3.309-1.472-3.326-3.295v-0.002c0-0.873 0.349-1.716 0.97-2.327 0.601-0.591 1.427-0.956 2.337-0.956 1.824 0 3.306 1.464 3.335 3.28l0 0.003z"></path>
        </symbol>
        <symbol id="icon-telegram-footer" viewBox="0 0 31 32">
            <path d="M26.473 2.492c-0.359 0.019-0.708 0.097-1.038 0.242-0.31 0.116-1.804 0.737-4.073 1.678l-19.598 8.136s-0.388 0.136-0.805 0.407c-0.252 0.165-0.475 0.368-0.64 0.621-0.204 0.291-0.368 0.737-0.31 1.202 0.097 0.776 0.621 1.251 0.989 1.513s0.727 0.388 0.727 0.388l5.382 1.775c0.233 0.766 1.629 5.285 1.969 6.332 0.194 0.621 0.388 1.009 0.63 1.309 0.116 0.145 0.252 0.281 0.417 0.388 0.087 0.039 0.175 0.078 0.271 0.097h-0.058l0.039 0.019 0.136 0.019c0.844 0.262 1.532-0.262 1.532-0.262l0.039-0.029 3.171-2.851 5.314 4.024 0.116 0.049c1.105 0.485 2.23 0.213 2.822-0.262 0.601-0.465 0.834-1.076 0.834-1.076l0.039-0.097 4.102-20.742c0.116-0.514 0.145-0.989 0.019-1.455-0.238-0.832-0.992-1.431-1.886-1.431-0.053 0-0.105 0.002-0.157 0.006l0.007-0zM26.356 4.713c0 0.068 0 0.058-0.029 0.194v0.010l-4.063 20.529c-0.019 0.029-0.049 0.097-0.126 0.155-0.097 0.068-0.155 0.107-0.514-0.029l-6.497-4.916-3.927 3.53 0.824-5.198 10.618-9.755c0.436-0.398 0.291-0.485 0.291-0.485 0.029-0.485-0.659-0.145-0.659-0.145l-13.382 8.175-0.010-0.019-6.419-2.133h-0.019l0.039-0.019 0.039-0.010 0.029-0.019 19.665-8.165c1.338-0.562 2.686-1.115 4.024-1.658 0.097-0.039 0.049-0.039 0.116-0.039z"></path>
        </symbol>
        <symbol id="icon-arrow-up" viewBox="0 0 16 32">
            <path d="M8.707 0.333c-0.391-0.391-1.024-0.391-1.414 0l-6.364 6.364c-0.391 0.391-0.391 1.024 0 1.414s1.024 0.391 1.414 0l5.657-5.657 5.657 5.657c0.39 0.391 1.024 0.391 1.414 0s0.39-1.024 0-1.414l-6.364-6.364zM9 31.040v-30h-2v30h2z"></path>
        </symbol>
    </defs>
</svg>
