<svg xmlns="http://www.w3.org/2000/svg" width="159" height="37" fill="none"><g fill="#fff" clip-path="url(#a)"><path d="m9.5 28.6-2.1.5c-.2-.5-.6-.7-1.3-.7-.5 0-.8.1-.8.4 0 .3.3.4.7.5l2.1.6 1 .7.2 1.1c0 .7-.3 1.3-.9 1.8-.6.5-1.4.7-2.7.7a5 5 0 0 1-2.3-.5c-.7-.3-1.1-.9-1.3-1.6l2.2-.3c.2.5.7.8 1.5.8.3 0 .6 0 .7-.2.2 0 .3-.2.3-.3l-.2-.2-.8-.3-1.7-.4a2 2 0 0 1-1-.8 2 2 0 0 1-.3-1c0-.8.3-1.4.9-1.9.5-.4 1.3-.6 2.3-.6.9 0 1.6.1 2.3.5.6.3 1 .7 1.2 1.2Zm15-1.6-3.4 7.2c-.5 1-1 1.7-1.5 2-.5.3-1.1.4-1.9.4a5 5 0 0 1-1-.1v-1.9h1.2c.8 0 1.1-.1 1.1-.5v-.5L17.1 27H20l.6 2.9.2.9.2-.4.1-.4 1.5-3h1.9Zm13.7 1.6-2.1.5c-.2-.5-.6-.7-1.3-.7-.5 0-.8.1-.8.4 0 .3.3.4.7.5l2.1.6 1 .7.2 1.1c0 .7-.3 1.3-.9 1.8-.6.5-1.4.7-2.7.7a5 5 0 0 1-2.3-.5c-.7-.3-1.1-.9-1.3-1.6l2.2-.3c.2.5.7.8 1.5.8.3 0 .6 0 .7-.2.2 0 .3-.2.3-.3l-.2-.2-.8-.3-1.7-.4a2 2 0 0 1-1-.8 2 2 0 0 1-.3-1c0-.8.3-1.4.9-1.9.5-.4 1.3-.6 2.3-.6.9 0 1.6.1 2.3.5.6.3 1 .7 1.2 1.2Zm13-1.6-.4 1.8h-1.3l-.4 2.5v.5c0 .3.1.5.6.5h.6L50 34a6.5 6.5 0 0 1-1.4.1c-.6 0-1 0-1.3-.2a1.8 1.8 0 0 1-.7-.6c-.2-.3-.3-.6-.3-1l.1-1.1.5-2.5h-1l.3-1.8h1l.4-2.1H50l-.4 2h1.4Zm14.7 4H61v.5c0 .3.1.5.3.7.2.2.5.2.7.2.6 0 1-.2 1.2-.8l2.4.3a3.8 3.8 0 0 1-1.5 1.7c-.7.5-1.4.7-2.3.7-1 0-1.9-.3-2.5-1-.7-.5-1-1.3-1-2.4a4 4 0 0 1 4.2-4.1c1 0 2 .3 2.5 1 .7.6 1 1.4 1 2.4l-.1.8Zm-2.5-1.3a1.7 1.7 0 0 0 0-.4l-.2-.6c-.2-.2-.4-.3-.7-.3-.3 0-.6.1-.8.3l-.5 1h2.2ZM74.8 27h2.4l-.1 1c.5-.8 1.2-1.2 2.1-1.2 1 0 1.5.4 1.8 1.3.5-.8 1.2-1.3 2.2-1.3a2 2 0 0 1 1.4.5c.4.4.6.9.6 1.5v.7l-.8 4.6h-2.7l.7-4.2v-.5c0-.4-.1-.6-.5-.6a.7.7 0 0 0-.6.2l-.3 1-.7 4h-2.6l.7-4.1v-.6l-.1-.4a.7.7 0 0 0-.4-.2 1 1 0 0 0-.5.2c-.2.1-.3.4-.4 1l-.7 4.2h-2.6l1.1-7.1Zm25.4 7h-2.8V33c-.5.9-1.3 1.4-2.3 1.4-.6 0-1.2-.2-1.6-.6a2 2 0 0 1-.6-1.5l.3-1.2c.3-.4.6-.7 1-.9a5 5 0 0 1 1.2-.4l2.6-.3V29c0-.4-.2-.5-.8-.5-.5 0-.9.2-1.1.8l-2.3-.5c.5-1.3 1.8-2 3.8-2 1 0 1.8.2 2.4.5.6.4.8.9.8 1.6 0 .3-.1 1.4-.5 3.2l-.2 1.4.1.6Zm-2.5-3.3c-1.3 0-1.9.5-1.9 1.2 0 .4.2.6.6.6.3 0 .6 0 .8-.3.3-.3.4-.8.5-1.5ZM114 27l-.3 1.8h-1.3l-.4 2.5-.1.5c0 .3.2.5.7.5h.6l-.3 1.8a6.5 6.5 0 0 1-1.5.1c-.5 0-1 0-1.2-.2a1.7 1.7 0 0 1-.7-.6c-.2-.3-.3-.6-.3-1l.1-1.1.5-2.5h-1l.3-1.8h1l.3-2.1h2.6l-.4 2h1.4Zm11 0-1.2 7h-2.8l1.2-7h2.7Zm.4-2.7-.3 2h-2.8l.4-2h2.7Zm11.8 7 2.1.5c-.4 1-.9 1.6-1.5 2a4 4 0 0 1-1.9.5c-1 0-1.8-.4-2.4-1-.6-.6-.9-1.4-.9-2.3 0-1.2.4-2.1 1.1-3 .7-.8 1.7-1.2 2.9-1.2.8 0 1.6.2 2.2.7.6.6.9 1.2.9 2l-2.4.4c0-.8-.3-1.2-.8-1.2-.4 0-.7.3-1 1l-.2 1.6c0 .7.3 1 .8 1s.9-.3 1-1Zm16.9-2.7-2.1.5c-.2-.5-.6-.7-1.3-.7-.5 0-.8.1-.8.4 0 .3.3.4.7.5l2.1.6 1 .7.2 1.1c0 .7-.3 1.3-.9 1.8-.6.5-1.4.7-2.7.7a5 5 0 0 1-2.3-.5c-.7-.3-1.1-.9-1.3-1.6l2.2-.3c.2.5.7.8 1.5.8.3 0 .6 0 .7-.2.2 0 .3-.2.3-.3l-.2-.2-.8-.3-1.7-.4a2 2 0 0 1-1-.8c-.2-.3-.3-.7-.3-1 0-.8.3-1.4.9-1.9.5-.4 1.3-.6 2.3-.6.9 0 1.6.1 2.3.5.6.3 1 .7 1.2 1.2ZM11.2 12.2l5.2.7a11 11 0 0 1-3 5A7.8 7.8 0 0 1 7.7 20a7 7 0 0 1-5.7-2.4A9.3 9.3 0 0 1 0 11.3c0-3 .9-5.6 2.6-7.9A8.6 8.6 0 0 1 9.8 0c2.2 0 4 .7 5.4 2 1.3 1.4 2 3.2 2 5.5l-5.3.4c0-1.2-.2-2.1-.6-2.7-.3-.5-.9-.8-1.7-.8-1.4 0-2.4 1-2.9 3.1s-.8 3.8-.8 5c0 2 .8 3 2.3 3 .8 0 1.4-.3 1.8-.8.5-.6.9-1.4 1.2-2.5Zm20.9-6.8-6.8 14.4c-1 2-2 3.4-3 4-1 .6-2.2.8-3.7.8-.7 0-1.5 0-2.2-.2v-3.8l2.6.2c1.5 0 2.2-.4 2.2-1.2 0-.2 0-.5-.2-.9L17.6 5.5h5.6l1.2 5.6.4 1.8.3-.7.3-.8 2.8-6h3.9Zm7.6-5-1.1 6.8c.7-.9 1.4-1.5 2-1.7.5-.3 1.2-.5 1.9-.5a4 4 0 0 1 3.3 1.5c.8 1 1.2 2.4 1.2 4.3a11 11 0 0 1-2 6.3 6.2 6.2 0 0 1-5.3 2.8c-2.2 0-3.7-.9-4.6-2.7l-1.6 2.4h-2.4L34.2.5h5.5Zm-2.4 14.2.1 1.1.5.6c.3.2.6.3 1 .3s.8-.2 1.2-.5c.3-.3.6-1 1-2.1.3-1 .4-2.2.4-3.4 0-1.4-.5-2.2-1.5-2.2s-1.6.8-2 2.2l-.7 4Zm26-1h-9.7v.8c0 .6.2 1 .6 1.5.4.3.8.5 1.4.5 1.2 0 2-.6 2.5-1.8l4.7.8a7.5 7.5 0 0 1-3 3.3 8.4 8.4 0 0 1-4.5 1.3c-2.1 0-3.8-.6-5.1-1.8a6.3 6.3 0 0 1-2-4.9 8.1 8.1 0 0 1 8.4-8.2 7 7 0 0 1 5 1.9 6.7 6.7 0 0 1 2 5l-.3 1.5Zm-5-2.8v-.6c0-.6-.1-1-.4-1.4-.3-.3-.8-.5-1.3-.5-.6 0-1.2.2-1.7.6a3 3 0 0 0-.9 2h4.3Zm8.6-5.4h4.7L71 8.8C72 6.3 73.5 5 75.5 5h.7l-.7 5.1h-1c-1.1 0-2 .3-2.5.8-.6.5-1 1.5-1.2 2.9l-1 5.8h-5.3l2.4-14.2Zm9 14.2L79.1.4H87c1.4 0 2.6.1 3.5.4a4.2 4.2 0 0 1 2.3 1.6c.6.8.9 1.7.9 2.8 0 1.1-.4 2.1-1.1 3-.8.8-1.8 1.3-3 1.6 2 .7 3.1 2.1 3.1 4.1 0 1.5-.5 2.8-1.5 4-1 1-2.6 1.6-5 1.6H76Zm6.2-4.3h3c.8 0 1.4-.2 1.7-.5.4-.4.6-.8.6-1.2 0-.6-.2-1-.6-1.4-.4-.3-1-.4-1.6-.4h-2.4l-.7 3.5Zm1.3-7.6h2.2c1.7 0 2.6-.5 2.6-1.7 0-1-.7-1.5-2-1.5h-2.3l-.5 3.2Zm18.7-2.3-2.4 14.2h-5.5l2.4-14.2h5.5Zm.8-5.4-.6 4.2h-5.5l.7-4.2h5.4Zm7 20c-1.9 0-3.5-.6-4.9-1.8a6 6 0 0 1-2-4.7c0-2.5.8-4.5 2.4-6a7.9 7.9 0 0 1 5.8-2.4 7 7 0 0 1 5.2 1.8c1.2 1.3 1.9 2.8 1.9 4.6 0 2.6-.8 4.7-2.5 6.3A8.4 8.4 0 0 1 110 20Zm.3-3.4c1 0 1.6-.8 2-2.2.4-1.5.5-2.7.5-3.7 0-1.5-.5-2.2-1.6-2.2-1 0-1.6.7-2 2.2-.4 1.5-.5 2.7-.5 3.7 0 1.4.5 2.2 1.6 2.2Zm11.4-11.2h5l-.4 2.3c.4-1 1-1.6 1.8-2a6 6 0 0 1 2.8-.7c1.2 0 2.2.3 2.9 1 .7.6 1.1 1.4 1.1 2.4l-.1 1.5-1.6 9.6h-5.4L129 11l.2-1c0-.8-.5-1.2-1.3-1.2-1.1 0-1.8.7-2 2.2l-1.5 8.5h-5.2l2.3-14Zm22.2 0-2.3 14.2H136l2.3-14.2h5.5Zm1-5.4-.7 4.2h-5.5l.7-4.2h5.4Zm9.2 14 4.3 1.1a7.6 7.6 0 0 1-3 3.9c-1.3.7-2.5 1-3.9 1-1.9 0-3.5-.6-4.7-1.8a6.5 6.5 0 0 1-1.9-4.8c0-2.2.7-4.2 2.2-5.9a7.3 7.3 0 0 1 5.8-2.5c1.7 0 3.2.5 4.4 1.5a5 5 0 0 1 1.8 4l-4.8.7c0-1.6-.5-2.3-1.5-2.3s-1.5.6-2 1.9a12 12 0 0 0-.5 3.2c0 1.4.5 2 1.6 2 1 0 1.8-.6 2.2-2Z"/></g><defs><clipPath id="a"><path fill="#fff" d="M0 0h159v37H0z"/></clipPath></defs></svg>