<svg xmlns="http://www.w3.org/2000/svg" width="159" height="37" fill="none"><g fill="#fff" clip-path="url(#a)"><path d="m9.476 28.63-2.088.46c-.172-.46-.601-.69-1.316-.69-.487 0-.744.144-.744.431 0 .258.229.402.715.488.973.172 1.66.344 2.06.545.4.2.715.459.916.774.2.316.314.66.314 1.062 0 .717-.286 1.32-.887 1.807-.6.488-1.487.718-2.718.718-.887 0-1.688-.172-2.346-.517-.658-.344-1.087-.89-1.259-1.578l2.203-.315c.172.516.658.774 1.488.774.315 0 .544-.057.715-.143.143-.086.23-.2.23-.316 0-.114-.058-.2-.144-.258-.114-.057-.372-.115-.772-.23-.83-.2-1.402-.344-1.774-.487a1.942 1.942 0 0 1-.887-.717c-.23-.345-.372-.689-.372-1.12 0-.716.286-1.319.858-1.778.572-.459 1.345-.688 2.318-.688.887 0 1.66.172 2.289.516.63.316 1.03.746 1.201 1.262ZM24.497 26.994l-3.376 7.172c-.486 1.062-1.001 1.722-1.516 2.009-.515.287-1.145.43-1.86.43-.372 0-.744-.029-1.116-.115v-1.893c.6.057 1.03.086 1.316.086.715 0 1.087-.201 1.087-.574 0-.086-.028-.258-.085-.459l-1.717-6.627h2.804l.6 2.84c.115.488.172.775.172.918.058-.086.086-.2.172-.344.057-.144.114-.258.172-.402l1.402-2.983h1.945v-.058ZM38.174 28.63l-2.089.46c-.171-.46-.6-.69-1.316-.69-.486 0-.744.144-.744.43 0 .26.23.403.715.489.973.172 1.66.344 2.06.545.401.2.716.459.916.774.2.316.315.66.315 1.062 0 .717-.286 1.32-.887 1.807-.6.488-1.488.717-2.718.717-.887 0-1.688-.172-2.346-.516-.659-.344-1.088-.89-1.26-1.578l2.204-.316c.171.517.658.775 1.488.775.314 0 .543-.057.715-.143.143-.086.229-.201.229-.316 0-.115-.057-.2-.143-.258-.115-.058-.372-.115-.773-.23-.83-.2-1.402-.344-1.774-.487a1.944 1.944 0 0 1-.887-.718c-.229-.344-.372-.688-.372-1.118 0-.718.286-1.32.859-1.78.572-.458 1.344-.688 2.317-.688.887 0 1.66.172 2.29.517.629.315 1.03.746 1.201 1.262ZM51.106 26.993 50.79 28.8h-1.288l-.429 2.525c-.028.258-.057.401-.057.459 0 .344.229.516.658.516.2 0 .4-.028.658-.086l-.315 1.836a6.521 6.521 0 0 1-1.459.172c-.572 0-1.001-.086-1.287-.23a1.75 1.75 0 0 1-.687-.602c-.172-.258-.258-.602-.258-1.061 0-.172.029-.517.115-1.033l.429-2.525h-.973l.286-1.807h.973l.4-2.094 2.547-.058-.372 2.152h1.374v.029ZM65.903 31.04h-4.865c-.029.2-.029.344-.029.43 0 .316.087.545.287.718.2.172.458.258.744.258.572 0 .973-.287 1.201-.89l2.375.373a3.846 3.846 0 0 1-1.488 1.693c-.687.43-1.459.631-2.289.631-1.058 0-1.917-.287-2.546-.89-.658-.602-.973-1.405-.973-2.466 0-1.12.4-2.095 1.173-2.898.773-.803 1.774-1.205 3.033-1.205 1.059 0 1.889.316 2.518.947.63.63.944 1.463.944 2.496 0 .23-.028.516-.085.803Zm-2.547-1.348a1.67 1.67 0 0 0 .029-.345c0-.258-.086-.459-.23-.66-.142-.2-.371-.286-.657-.286-.287 0-.573.114-.802.344-.228.23-.4.545-.457.947h2.117ZM74.832 26.995h2.403l-.172 1.09c.515-.86 1.26-1.291 2.175-1.291.887 0 1.488.43 1.803 1.29.457-.831 1.173-1.261 2.117-1.261.63 0 1.116.172 1.488.516.372.344.572.832.572 1.434 0 .201-.028.43-.057.689l-.772 4.59h-2.69l.715-4.188c.029-.201.058-.373.058-.488 0-.402-.2-.603-.573-.603a.72.72 0 0 0-.572.259c-.143.172-.257.516-.344 1.004l-.686 4.045h-2.604l.715-4.189c.03-.258.058-.43.058-.545 0-.2-.058-.373-.172-.459a.67.67 0 0 0-.372-.143c-.143 0-.286.057-.486.172-.2.115-.344.43-.43.975l-.715 4.189h-2.603l1.144-7.086ZM100.211 34.05h-2.775c0-.142-.029-.257-.029-.315 0-.23.03-.516.058-.832-.544.89-1.316 1.349-2.318 1.349-.658 0-1.202-.201-1.63-.574-.402-.402-.63-.86-.63-1.463 0-.43.114-.832.343-1.205.229-.373.544-.66.944-.86.4-.202.83-.345 1.26-.431.428-.058 1.258-.172 2.517-.287.057-.172.086-.316.086-.402 0-.401-.258-.574-.801-.574-.544 0-.916.259-1.174.804l-2.288-.46c.572-1.319 1.86-1.979 3.834-1.979 1.001 0 1.774.172 2.375.517.6.344.858.86.858 1.549 0 .316-.172 1.377-.515 3.213-.115.689-.2 1.148-.2 1.377 0 .144.028.344.085.574Zm-2.489-3.356c-1.287.086-1.917.517-1.917 1.234 0 .402.2.602.63.602.257 0 .543-.114.8-.344.23-.258.401-.746.487-1.492ZM113.887 26.993l-.315 1.807h-1.287l-.43 2.525c-.028.258-.056.402-.056.459 0 .344.228.516.658.516.2 0 .4-.028.658-.086l-.315 1.836a6.524 6.524 0 0 1-1.46.172c-.572 0-1.001-.086-1.287-.23a1.744 1.744 0 0 1-.686-.601c-.172-.259-.258-.603-.258-1.062 0-.172.028-.516.114-1.033l.429-2.524h-.972l.286-1.808h.973l.4-2.094 2.546-.058-.371 2.152h1.373v.029ZM124.844 26.994l-1.173 7.086h-2.747l1.173-7.086h2.747Zm.457-2.725-.343 2.094h-2.747l.344-2.094h2.746ZM137.088 31.326l2.117.517c-.372.918-.887 1.549-1.488 1.893-.629.344-1.259.517-1.917.517-.973 0-1.774-.316-2.375-.919-.629-.63-.915-1.405-.915-2.38 0-1.12.371-2.095 1.087-2.927.715-.86 1.688-1.262 2.89-1.262.858 0 1.602.258 2.203.774.601.517.915 1.205.915 2.037l-2.403.287c0-.774-.257-1.148-.772-1.148-.43 0-.745.316-.945.947-.2.631-.286 1.177-.286 1.636 0 .688.257 1.032.773 1.032.515-.028.886-.344 1.116-1.004ZM153.971 28.63l-2.089.46c-.171-.46-.601-.69-1.316-.69-.487 0-.744.144-.744.431 0 .258.229.402.715.488.973.172 1.66.344 2.06.545.401.2.716.459.916.774.2.316.315.66.315 1.062 0 .717-.287 1.32-.887 1.807-.601.488-1.488.718-2.719.718-.886 0-1.688-.172-2.346-.517-.658-.344-1.087-.89-1.259-1.578l2.203-.315c.172.516.659.774 1.488.774.315 0 .544-.057.716-.143.143-.086.228-.2.228-.316 0-.114-.056-.2-.143-.258-.114-.057-.372-.115-.772-.23-.83-.2-1.402-.344-1.774-.487a1.945 1.945 0 0 1-.887-.717c-.257-.316-.372-.689-.372-1.12 0-.716.286-1.319.858-1.778.573-.459 1.345-.688 2.318-.688.887 0 1.659.172 2.289.516.63.316 1.03.746 1.202 1.262ZM11.245 12.195l5.121.66c-.6 2.095-1.63 3.816-3.061 5.136-1.46 1.348-3.29 2.008-5.494 2.008-2.403 0-4.292-.803-5.694-2.439C.715 15.925 0 13.83 0 11.278c0-2.956.858-5.566 2.604-7.833C4.349 1.18 6.753.031 9.786.031c2.203 0 4.005.689 5.379 2.037 1.373 1.377 2.088 3.156 2.088 5.394l-5.379.401c-.028-1.176-.2-2.065-.543-2.639-.344-.574-.916-.86-1.746-.86-1.402 0-2.375 1.06-2.89 3.155-.515 2.095-.772 3.758-.772 4.963 0 1.951.772 2.955 2.289 2.955.744 0 1.373-.258 1.831-.745.458-.546.858-1.378 1.202-2.497ZM32.07 5.423l-6.724 14.344c-1.002 2.095-2.003 3.443-3.033 4.017-1.03.574-2.26.86-3.72.86-.715 0-1.46-.085-2.232-.229v-3.787c1.173.115 2.06.172 2.661.172 1.46 0 2.175-.401 2.175-1.176 0-.2-.057-.516-.172-.918L17.62 5.452h5.608l1.202 5.68c.229.975.343 1.578.343 1.807.086-.172.2-.401.315-.717.086-.258.2-.545.343-.803l2.805-5.967h3.834v-.03ZM39.685.46l-1.116 6.742c.744-.89 1.402-1.463 1.974-1.75.572-.287 1.23-.43 1.946-.43 1.345 0 2.46.487 3.262 1.463.83.975 1.23 2.38 1.23 4.274 0 2.324-.658 4.418-1.946 6.312-1.287 1.893-3.09 2.84-5.379 2.84-2.175 0-3.691-.89-4.55-2.697l-1.573 2.382h-2.46L34.247.46h5.437ZM37.31 14.632c0 .517.028.89.114 1.09.086.201.23.374.487.574.257.172.572.259.944.259.486 0 .887-.144 1.23-.46.344-.315.658-1.004.973-2.094.315-1.061.458-2.209.458-3.442 0-1.406-.487-2.123-1.488-2.123-.944 0-1.63.717-2.06 2.151l-.658 4.045ZM63.346 13.54h-9.728c-.057.373-.057.66-.057.86 0 .632.2 1.09.6 1.464.401.344.888.516 1.488.516 1.145 0 1.946-.602 2.432-1.778l4.75.774c-.6 1.377-1.602 2.496-2.975 3.357-1.374.86-2.89 1.29-4.578 1.29-2.118 0-3.806-.602-5.122-1.807-1.316-1.205-1.974-2.84-1.974-4.905 0-2.238.772-4.189 2.317-5.796 1.545-1.606 3.577-2.41 6.066-2.41 2.118 0 3.806.632 5.065 1.865 1.258 1.263 1.888 2.898 1.888 4.992 0 .43-.057.976-.172 1.578Zm-5.064-2.725c.057-.287.057-.517.057-.66 0-.517-.143-.947-.458-1.32-.315-.373-.743-.574-1.316-.574-.6 0-1.144.23-1.63.689-.487.459-.774 1.09-.888 1.865h4.235ZM66.895 5.424h4.692l-.572 3.414c.973-2.553 2.49-3.844 4.492-3.844.172 0 .372.029.659.058l-.63 5.049c-.487-.029-.801-.029-.973-.029-1.173 0-2.031.287-2.575.832-.544.545-.944 1.52-1.173 2.898l-.973 5.766h-5.38l2.433-14.144ZM75.908 19.564 79.085.43h7.868c1.43 0 2.603.114 3.519.373a4.223 4.223 0 0 1 2.29 1.578c.629.803.915 1.72.915 2.782 0 1.177-.373 2.152-1.116 2.984-.744.803-1.717 1.377-2.976 1.635 2.089.746 3.147 2.123 3.147 4.16 0 1.492-.515 2.783-1.487 3.902-1.002 1.119-2.661 1.693-5.008 1.693H75.908v.028Zm6.238-4.217h2.861c.887 0 1.488-.2 1.831-.574.344-.373.516-.774.516-1.205 0-.545-.172-.975-.544-1.32-.373-.344-.916-.487-1.631-.487h-2.404l-.63 3.586Zm1.259-7.603h2.174c1.746 0 2.604-.573 2.604-1.75 0-1.004-.687-1.52-2.06-1.52h-2.175l-.543 3.27ZM102.06 5.422l-2.375 14.144h-5.494l2.375-14.144h5.494ZM102.947 0l-.687 4.16h-5.493L97.453 0h5.494ZM109.986 19.995c-1.974 0-3.605-.574-4.95-1.75-1.345-1.176-2.003-2.783-2.003-4.791 0-2.439.773-4.447 2.318-5.996 1.545-1.578 3.519-2.353 5.866-2.353 2.174 0 3.891.603 5.15 1.837 1.259 1.233 1.917 2.754 1.917 4.533 0 2.668-.83 4.762-2.461 6.282-1.631 1.492-3.576 2.238-5.837 2.238Zm.229-3.443c.973 0 1.631-.717 2.003-2.18.372-1.463.515-2.668.515-3.643 0-1.492-.544-2.238-1.631-2.238-.973 0-1.631.746-2.003 2.238-.372 1.491-.544 2.696-.544 3.643 0 1.434.573 2.18 1.66 2.18ZM121.629 5.424h4.921l-.372 2.296c.372-.947 1.001-1.636 1.86-2.066a6.058 6.058 0 0 1 2.747-.66c1.201 0 2.174.316 2.918.947.744.631 1.116 1.463 1.116 2.496 0 .401-.057.89-.143 1.434l-1.602 9.668h-5.38l1.431-8.492c.086-.545.143-.889.143-1.09 0-.803-.429-1.205-1.259-1.205-1.116 0-1.802.746-2.06 2.267l-1.43 8.492h-5.265l2.375-14.087ZM143.83 5.422l-2.375 14.144h-5.494l2.375-14.144h5.494ZM144.745 0l-.687 4.16h-5.494l.687-4.16h5.494ZM154.022 14.086l4.263 1.062c-.772 1.836-1.774 3.098-3.004 3.815-1.231.717-2.518 1.062-3.834 1.062-1.946 0-3.548-.631-4.779-1.865-1.23-1.234-1.859-2.84-1.859-4.763 0-2.209.715-4.16 2.174-5.88 1.46-1.693 3.377-2.554 5.78-2.554 1.745 0 3.205.516 4.435 1.578 1.231 1.061 1.803 2.41 1.803 4.045l-4.779.574c0-1.52-.515-2.295-1.545-2.295-.887 0-1.516.63-1.889 1.893-.371 1.262-.571 2.353-.571 3.27 0 1.378.515 2.066 1.573 2.066 1.03-.028 1.774-.688 2.232-2.008Z"/></g><defs><clipPath id="a"><path fill="#fff" d="M0 0h159v37H0z"/></clipPath></defs></svg>