<svg xmlns="http://www.w3.org/2000/svg" width="100" height="100" fill="none"><g clip-path="url(#a)"><circle cx="49.6" cy="49.6" r="49.6" fill="#F03131"/><path fill="#fff" d="M59.3 19.6H24v59h52.1V36.6l-16.8-17Zm12.9 55.1H28V23.5h29.6L72.2 38v36.6Z"/><path fill="#fff" d="M47.9 37.6a10.6 10.6 0 0 0-8.7 4.5 11.2 11.2 0 0 0 5 17 10.6 10.6 0 0 0 9.7-1.3l7.7 7.8L64 63l-7.6-7.8a11.2 11.2 0 0 0-3-16c-1.7-1-3.6-1.6-5.6-1.6Zm-7.2 11a7.2 7.2 0 0 1 4.4-6.8 7 7 0 0 1 7.8 1.6 7.4 7.4 0 0 1 1.6 8 7.3 7.3 0 0 1-2.6 3.4 7 7 0 0 1-9.1-1 7.5 7.5 0 0 1-2.1-5.2Z"/></g><defs><clipPath id="a"><path fill="#fff" d="M0 0h100v100H0z"/></clipPath></defs></svg>