<svg xmlns="http://www.w3.org/2000/svg" width="100" height="100" fill="none"><circle cx="49.6" cy="49.6" r="49.6" fill="#F03131"/><path fill="#fff" d="M51.7 45.6c-1.4-.3-2.8-1-3.8-2-1-.4-1.4-1.4-1.4-2.1 0-.7.3-1.7 1-2 1-.8 2-1.5 3.1-1.1 2 0 3.8 1 4.9 2.4l3-4.1c-1-1-2-1.8-3-2.5a7 7 0 0 0-3.8-1v-4.8h-4.2v4.8a9.9 9.9 0 0 0-4.8 2.8c-1.4 1.7-2.4 3.8-2.1 5.8 0 2.1.7 4.2 2 5.6 1.8 1.7 4.2 2.7 6.3 3.8 1 .3 2.4 1 3.4 1.7a4 4 0 0 1 1 2.8c0 1-.3 2-1 3a5 5 0 0 1-3.4 1.5c-1.4 0-3.1-.4-4.2-1.4-1-.7-2-1.7-2.7-2.8l-3.5 3.8c1 1.4 2.1 2.4 3.5 3.5 1.7 1 3.8 2 5.9 2v4.5h3.8v-5.1c2-.4 3.8-1.4 5.1-2.8 1.8-1.7 2.8-4.5 2.8-7 0-2-.7-4.4-2.4-5.8a13.5 13.5 0 0 0-5.5-3.5Zm-2.1-24.1A27.7 27.7 0 0 0 21.9 49a27.7 27.7 0 0 0 27.7 27.6 27.7 27.7 0 0 0 27.6-27.6 27.7 27.7 0 0 0-27.6-27.6Zm0 51.4a23.9 23.9 0 0 1 0-47.6 23.9 23.9 0 0 1 0 47.6Z"/></svg>