<svg xmlns="http://www.w3.org/2000/svg" width="100" height="100" fill="none"><g clip-path="url(#a)"><circle cx="49.6" cy="49.6" r="49.6" fill="#F03131"/><path fill="#fff" d="M76.8 46.5 52.5 21.3 51 19.6a2 2 0 0 0-2.8 0l-26 27a4.2 4.2 0 0 0-1.1 3c0 2.3 1.9 4 4 4h2.7V75h43.5V53.7H74c1 0 2-.4 2.8-1.2a4.2 4.2 0 0 0 1.2-3c0-1.1-.4-2.2-1.2-3ZM53 70.3h-7V56.9h7v13.4ZM66.7 49v21.3H57v-15c0-1.4-1-2.5-2.5-2.5h-10a2.6 2.6 0 0 0-2.5 2.6v14.9h-9.7V49h-6l23.2-24.2 1.5 1.5L72.8 49h-6Z"/></g><defs><clipPath id="a"><path fill="#fff" d="M0 0h100v100H0z"/></clipPath></defs></svg>